<?xml version="1.0" encoding="UTF-8" standalone="no"?>
<svg
   xmlns:dc="http://purl.org/dc/elements/1.1/"
   xmlns:cc="http://creativecommons.org/ns#"
   xmlns:rdf="http://www.w3.org/1999/02/22-rdf-syntax-ns#"
   xmlns:svg="http://www.w3.org/2000/svg"
   xmlns="http://www.w3.org/2000/svg"
   xmlns:sodipodi="http://sodipodi.sourceforge.net/DTD/sodipodi-0.dtd"
   xmlns:inkscape="http://www.inkscape.org/namespaces/inkscape"
   width="25"
   height="25"
   viewBox="0 0 25 25"
   version="1.1"
   id="svg2601"
   sodipodi:docname="Octicons-mark-github.svg"
   style="fill:none"
   inkscape:version="0.92.2 5c3e80d, 2017-08-06">
  <metadata
     id="metadata2607">
    <rdf:RDF>
      <cc:Work
         rdf:about="">
        <dc:format>image/svg+xml</dc:format>
        <dc:type
           rdf:resource="http://purl.org/dc/dcmitype/StillImage" />
        <dc:title></dc:title>
      </cc:Work>
    </rdf:RDF>
  </metadata>
  <defs
     id="defs2605" />
  <sodipodi:namedview
     pagecolor="#ffffff"
     bordercolor="#666666"
     borderopacity="1"
     objecttolerance="10"
     gridtolerance="10"
     guidetolerance="10"
     inkscape:pageopacity="0"
     inkscape:pageshadow="2"
     inkscape:window-width="1283"
     inkscape:window-height="764"
     id="namedview2603"
     showgrid="false"
     inkscape:zoom="7.375"
     inkscape:cx="7.5932197"
     inkscape:cy="7.5932198"
     inkscape:window-x="0"
     inkscape:window-y="0"
     inkscape:window-maximized="0"
     inkscape:current-layer="svg2601" />
  <path
     d="m 12.5,1e-5 C 5.5937489,10e-6 0,5.7352 0,12.8162 c 0,5.6711 3.5781238,10.4612 8.5468762,12.1593 0.625,0.1122 0.8593727,-0.2723 0.8593727,-0.6088 0,-0.3043 -0.015625,-1.3136 -0.015625,-2.387 C 6.25,22.5725 5.4375,21.1947 5.1875,20.4738 5.0468762,20.1054 4.4375,18.9679 3.9062489,18.6636 c -0.4375,-0.2404 -1.0625,-0.8331 -0.015625,-0.8491 0.9843762,-0.016 1.6875,0.9292 1.9218762,1.3136 1.125,1.9385 2.9218762,1.3938 3.6406238,1.0574 0.1093762,-0.8331 0.4375,-1.3938 0.7968761,-1.7142 -2.781251,-0.3204 -5.6874999,-1.4258 -5.6874999,-6.328 0,-1.3937 0.4843762,-2.5472 1.2812489,-3.4443 -0.125,-0.3204 -0.5625,-1.6341 0.125,-3.3963 0,0 1.0468749,-0.3364 3.4375,1.3137 1,-0.2884 2.0625,-0.4326 3.125,-0.4326 1.0625,0 2.125,0.1442 3.125,0.4326 2.390627,-1.6662 3.437502,-1.3137 3.437502,-1.3137 0.687498,1.7622 0.249998,3.0759 0.125,3.3963 C 20.015624,9.5961 20.5,10.7335 20.5,12.1433 c 0,4.9182 -2.921876,6.0076 -5.703124,6.328 0.453124,0.4005 0.843748,1.1695 0.843748,2.371 0,1.7142 -0.01562,3.0919 -0.01562,3.5244 0,0.3365 0.234376,0.737 0.859376,0.6088 C 21.421876,23.2774 25,18.4713 25,12.8162 25,5.7352 19.406249,9.9999999e-6 12.5,10e-6 Z"
     id="path2599"
     inkscape:connector-curvature="0"
     style="clip-rule:evenodd;fill:#1b1f23;fill-rule:evenodd;stroke-width:1.58213782" />
</svg>
