<?xml version="1.0" encoding="UTF-8" standalone="no"?>
<!DOCTYPE svg PUBLIC "-//W3C//DTD SVG 1.1//EN" "http://www.w3.org/Graphics/SVG/1.1/DTD/svg11.dtd">
<svg width="100%" height="100%" viewBox="0 0 100 100" version="1.1" xmlns="http://www.w3.org/2000/svg" xmlns:xlink="http://www.w3.org/1999/xlink" xml:space="preserve" xmlns:serif="http://www.serif.com/" style="fill-rule:evenodd;clip-rule:evenodd;stroke-linejoin:round;stroke-miterlimit:2;">
    <g transform="matrix(0.103549,0.0161449,-0.0113995,0.146655,-35.1239,-73.873)">
        <path d="M808.973,434.046L810.02,433.946L811.072,433.856L812.128,433.777L813.189,433.709L814.255,433.653L815.325,433.608L816.399,433.576L817.478,433.555L818.56,433.548L819.646,433.554L820.735,433.574L821.827,433.607L822.922,433.655L824.019,433.717L825.119,433.794L826.22,433.887L827.321,433.995L828.423,434.119L829.524,434.26L830.625,434.417L831.725,434.59L832.822,434.781L833.916,434.989L835.007,435.215L836.092,435.458L837.173,435.718L838.248,435.997L839.315,436.293L840.375,436.607L841.426,436.939L842.467,437.289L843.498,437.656L844.519,438.04L845.527,438.442L846.523,438.861L847.504,439.296L848.472,439.747L849.426,440.215L850.364,440.699L851.286,441.198L852.191,441.712L853.08,442.241L853.952,442.784L854.787,443.328L855.553,443.848L856.285,444.363L857,444.884L857.7,445.412L858.385,445.946L859.055,446.486L859.71,447.031L860.351,447.582L860.978,448.138L861.592,448.699L862.193,449.264L862.782,449.835L863.357,450.41L863.921,450.989L864.473,451.573L865.014,452.16L865.544,452.752L866.063,453.348L866.572,453.948L867.071,454.552L867.56,455.159L868.039,455.77L868.509,456.386L868.971,457.005L869.423,457.627L869.894,458.291L870.73,459.514L871.561,460.791L872.363,462.082L873.136,463.387L873.882,464.705L874.602,466.037L875.297,467.383L875.969,468.741L876.618,470.114L877.245,471.499L877.85,472.897L878.436,474.309L879.002,475.733L879.549,477.169L880.077,478.618L880.588,480.08L881.082,481.553L881.558,483.038L882.019,484.536L882.464,486.044L882.893,487.564L883.307,489.095L883.706,490.637L884.091,492.189L884.462,493.751L884.819,495.323L885.163,496.905L885.493,498.497L885.811,500.097L886.116,501.707L886.409,503.324L886.689,504.95L886.958,506.584L887.215,508.225L887.46,509.873L887.695,511.528L887.918,513.189L888.13,514.857L888.332,516.53L888.523,518.209L888.704,519.893L888.875,521.581L889.036,523.273L889.187,524.97L889.329,526.669L889.461,528.372L889.584,530.078L889.698,531.786L889.804,533.496L889.9,535.207L889.988,536.919L890.067,538.632L890.138,540.346L890.201,542.059L890.257,543.772L890.304,545.484L890.344,547.21L890.401,550.61L890.429,554.015L890.429,557.407L890.403,560.782L890.352,564.137L890.277,567.468L890.178,570.772L890.057,574.046L889.916,577.286L889.754,580.488L889.574,583.65L889.376,586.768L889.162,589.838L888.932,592.858L888.688,595.824L888.43,598.732L888.16,601.579L887.878,604.362L887.586,607.078L887.285,609.723L886.976,612.295L886.659,614.79L886.335,617.205L886.006,619.538L885.672,621.785L885.334,623.946L884.993,626.017L884.648,627.997L884.304,629.868L883.629,633.38L882.935,636.871L882.222,640.356L881.489,643.835L880.737,647.307L879.966,650.773L879.177,654.233L878.37,657.688L877.546,661.136L876.706,664.578L875.85,668.015L874.977,671.447L874.09,674.872L873.188,678.293L872.272,681.708L871.342,685.117L870.399,688.522L869.443,691.921L868.475,695.316L867.495,698.705L866.504,702.09L865.502,705.47L864.489,708.845L863.467,712.216L862.436,715.583L861.395,718.945L860.347,722.302L859.29,725.656L858.226,729.005L857.155,732.351L856.078,735.693L854.992,739.037L852.811,745.694L850.61,752.344L848.394,758.981L846.167,765.606L843.933,772.218L841.695,778.819L837.225,791.992L834.999,798.564L832.785,805.128L830.586,811.685L828.406,818.235L826.248,824.779L824.113,831.326L823.059,834.588L822.012,837.854L820.973,841.12L819.948,844.368L819.087,847.141L818.251,849.904L817.433,852.675L816.631,855.455L815.844,858.242L815.072,861.038L814.313,863.841L813.566,866.652L812.831,869.471L812.105,872.296L811.389,875.13L810.68,877.97L809.978,880.817L809.282,883.666L807.899,889.403L806.527,895.158L805.153,900.937L803.769,906.74L802.368,912.557L801.654,915.483L800.934,918.409L800.203,921.341L799.462,924.277L798.708,927.218L797.941,930.163L797.159,933.114L796.356,936.085L795.88,937.798L795.377,939.543L794.855,941.302L794.313,943.073L793.754,944.858L793.178,946.656L792.587,948.466L791.981,950.289L791.362,952.123L790.728,953.979L789.439,957.688L788.11,961.451L786.753,965.25L783.995,972.928L782.609,976.8L781.23,980.684L779.863,984.586L779.193,986.523L778.527,988.468L777.869,990.412L777.221,992.353L776.583,994.29L775.956,996.224L775.341,998.152L774.74,1000.08L774.153,1001.99L773.582,1003.9L773.027,1005.8L772.49,1007.69L771.971,1009.56L771.472,1011.43L770.993,1013.28L770.536,1015.12L770.101,1016.95L769.689,1018.75L769.302,1020.55L768.94,1022.32L768.603,1024.07L768.294,1025.81L768.012,1027.52L767.754,1029.23L767.642,1030.04L767.533,1030.87L767.432,1031.69L767.338,1032.51L767.252,1033.32L767.174,1034.12L767.103,1034.91L767.04,1035.7L766.985,1036.48L766.938,1037.26L766.898,1038.02L766.867,1038.78L766.844,1039.53L766.828,1040.27L766.821,1041.01L766.822,1041.73L766.831,1042.45L766.848,1043.15L766.874,1043.85L766.907,1044.54L766.948,1045.22L766.998,1045.89L767.056,1046.55L767.121,1047.2L767.195,1047.84L767.276,1048.47L767.365,1049.09L767.478,1049.81L767.647,1051.89L767.497,1053.99L767.029,1056.08L766.249,1058.14L765.167,1060.15L763.794,1062.08L762.147,1063.91L760.245,1065.61L758.111,1067.17L755.77,1068.58L753.248,1069.8L750.577,1070.83L747.786,1071.66L744.908,1072.27L741.978,1072.67L739.03,1072.84L736.098,1072.78L733.217,1072.49L730.42,1071.98L727.741,1071.26L725.21,1070.32L722.857,1069.19L720.71,1067.87L718.795,1066.38L717.133,1064.74L715.743,1062.97L714.644,1061.09L713.846,1059.12L713.36,1057.08L713.215,1056.17L713.069,1055.15L712.938,1054.13L712.821,1053.12L712.718,1052.1L712.629,1051.07L712.553,1050.05L712.491,1049.02L712.441,1048L712.404,1046.97L712.379,1045.94L712.366,1044.91L712.365,1043.88L712.375,1042.84L712.396,1041.81L712.428,1040.77L712.471,1039.73L712.524,1038.69L712.588,1037.65L712.661,1036.61L712.745,1035.57L712.837,1034.53L712.94,1033.48L713.051,1032.44L713.171,1031.39L713.3,1030.34L713.437,1029.3L713.587,1028.22L713.898,1026.15L714.245,1024.04L714.621,1021.94L715.025,1019.83L715.456,1017.72L715.913,1015.61L716.394,1013.5L716.897,1011.38L717.422,1009.27L717.967,1007.16L718.532,1005.05L719.114,1002.95L719.713,1000.84L720.327,998.74L720.955,996.642L721.596,994.548L722.249,992.459L722.913,990.376L723.586,988.3L724.268,986.23L724.957,984.169L725.652,982.115L726.352,980.071L727.058,978.028L728.468,974.005L729.882,970.019L731.289,966.091L734.043,958.425L735.371,954.705L736.655,951.07L737.891,947.514L738.48,945.792L739.056,944.085L739.614,942.406L740.153,940.755L740.671,939.135L741.169,937.547L741.645,935.991L742.097,934.47L742.525,932.984L742.933,931.516L743.688,928.721L744.435,925.902L745.171,923.075L745.897,920.242L746.615,917.403L747.324,914.557L748.026,911.704L748.722,908.852L750.106,903.108L751.479,897.35L752.852,891.569L754.236,885.768L755.638,879.955L756.351,877.031L757.072,874.109L757.802,871.182L758.544,868.251L759.297,865.315L760.065,862.376L760.846,859.432L761.644,856.485L762.459,853.534L763.293,850.58L764.147,847.622L765.021,844.661L765.918,841.697L766.833,838.748L767.891,835.395L768.952,832.061L770.02,828.731L771.097,825.397L773.261,818.759L775.449,812.124L777.655,805.499L779.874,798.883L782.102,792.276L784.337,785.676L788.809,772.499L791.039,765.918L793.261,759.342L795.47,752.771L797.664,746.202L799.837,739.636L801.99,733.065L803.053,729.789L804.111,726.508L805.162,723.226L806.204,719.945L807.238,716.663L808.263,713.381L809.279,710.099L810.285,706.816L811.28,703.533L812.265,700.249L813.239,696.964L814.201,693.678L815.151,690.392L816.089,687.104L817.014,683.816L817.925,680.526L818.823,677.235L819.706,673.942L820.575,670.648L821.428,667.352L822.267,664.055L823.089,660.756L823.895,657.454L824.684,654.151L825.456,650.846L826.21,647.538L826.946,644.228L827.663,640.916L828.362,637.601L829.041,634.283L829.701,630.962L830.337,627.654L830.635,626.036L830.933,624.319L831.235,622.49L831.538,620.555L831.84,618.52L832.14,616.39L832.438,614.169L832.731,611.862L833.018,609.474L833.299,607.007L833.572,604.468L833.836,601.859L834.09,599.185L834.332,596.45L834.562,593.658L834.779,590.812L834.981,587.917L835.167,584.977L835.337,581.996L835.489,578.976L835.623,575.924L835.737,572.841L835.829,569.733L835.9,566.603L835.949,563.454L835.973,560.292L835.972,557.12L835.946,553.941L835.893,550.745L835.856,549.169L835.812,547.58L835.761,545.992L835.703,544.407L835.637,542.824L835.564,541.243L835.483,539.666L835.394,538.094L835.298,536.525L835.193,534.962L835.081,533.404L834.96,531.852L834.832,530.307L834.694,528.769L834.549,527.239L834.395,525.716L834.232,524.203L834.061,522.698L833.881,521.204L833.692,519.72L833.494,518.246L833.287,516.784L833.071,515.334L832.846,513.897L832.612,512.473L832.368,511.062L832.115,509.666L831.854,508.285L831.583,506.919L831.302,505.569L831.013,504.236L830.714,502.921L830.406,501.623L830.088,500.343L829.762,499.083L829.427,497.844L829.082,496.624L828.729,495.426L828.367,494.249L827.997,493.095L827.618,491.965L827.232,490.859L826.837,489.777L826.435,488.721L826.025,487.691L825.609,486.688L825.187,485.712L824.759,484.766L824.325,483.849L823.886,482.962L823.444,482.105L822.998,481.281L822.55,480.489L822.101,479.731L821.651,479.007L821.202,478.317L820.729,477.624L820.534,477.349L820.312,477.045L820.093,476.75L819.875,476.465L819.658,476.189L819.443,475.922L819.231,475.665L819.021,475.417L818.814,475.18L818.61,474.951L818.409,474.733L818.212,474.525L818.018,474.325L817.828,474.136L817.644,473.957L817.463,473.788L817.288,473.628L817.119,473.477L816.955,473.337L816.797,473.205L816.646,473.083L816.501,472.971L816.364,472.867L816.234,472.773L816.113,472.687L816.017,472.622L815.948,472.577L815.905,472.55L815.867,472.528L815.834,472.509L815.807,472.494L815.785,472.483L815.768,472.474L815.753,472.468L815.742,472.463L815.734,472.459L815.728,472.457L815.723,472.455L815.719,472.454L815.714,472.452L815.71,472.451L815.703,472.449L815.695,472.446L815.684,472.443L815.668,472.44L815.648,472.435L815.624,472.43L815.593,472.424L815.556,472.418L815.512,472.411L815.46,472.404L815.4,472.396L815.331,472.388L815.253,472.38L815.165,472.373L815.067,472.366L814.958,472.36L814.839,472.355L814.708,472.351L814.566,472.348L814.412,472.347L814.247,472.349L814.07,472.352L813.881,472.358L813.679,472.366L813.466,472.377L813.24,472.392L813.003,472.41L812.753,472.431L812.491,472.456L812.217,472.485L811.931,472.518L811.634,472.555L811.325,472.597L811.004,472.644L810.672,472.695L810.329,472.751L809.975,472.812L809.61,472.878L809.234,472.95L808.848,473.026L808.452,473.108L808.045,473.195L807.629,473.288L807.203,473.387L806.767,473.491L806.323,473.601L805.931,473.7L804.933,473.965L803.965,474.236L802.965,474.53L801.934,474.847L800.874,475.187L799.786,475.55L798.672,475.936L797.533,476.344L796.37,476.775L795.185,477.227L793.979,477.701L792.753,478.196L791.508,478.712L790.245,479.248L788.966,479.804L787.671,480.38L786.362,480.975L785.039,481.588L783.703,482.22L782.356,482.869L780.997,483.535L779.629,484.218L778.251,484.918L776.864,485.633L775.47,486.363L774.068,487.108L772.66,487.867L771.247,488.639L769.829,489.425L768.406,490.224L766.98,491.035L765.551,491.857L764.119,492.691L762.685,493.536L761.251,494.39L759.816,495.254L758.381,496.128L756.946,497.01L755.513,497.9L754.081,498.798L752.652,499.703L751.225,500.615L749.802,501.533L748.382,502.456L746.967,503.385L745.557,504.318L744.152,505.256L742.753,506.198L741.36,507.142L739.975,508.089L738.596,509.039L737.226,509.99L735.864,510.942L734.511,511.895L733.167,512.849L731.833,513.802L730.528,514.741L727.895,516.655L725.327,518.547L722.81,520.425L720.348,522.287L717.944,524.128L715.601,525.945L713.325,527.732L711.118,529.486L708.984,531.203L706.928,532.879L704.953,534.509L703.063,536.09L701.263,537.615L699.556,539.081L697.948,540.483L696.444,541.814L695.048,543.07L693.768,544.243L692.609,545.326L691.54,546.346L690.445,547.41L689.319,548.511L688.199,549.617L687.083,550.727L685.972,551.842L684.866,552.961L683.764,554.084L682.668,555.211L681.576,556.343L680.489,557.479L679.406,558.619L678.329,559.763L677.256,560.912L676.188,562.065L675.124,563.222L674.066,564.383L673.012,565.548L671.962,566.717L670.917,567.891L669.877,569.069L668.842,570.25L667.811,571.436L666.785,572.626L665.764,573.819L664.747,575.017L663.735,576.219L662.727,577.425L661.724,578.634L660.726,579.848L659.732,581.065L658.742,582.287L657.758,583.512L656.777,584.741L655.814,585.959L653.864,588.452L651.944,590.945L650.042,593.453L648.158,595.975L646.292,598.513L644.444,601.065L642.613,603.631L640.8,606.212L639.005,608.807L637.227,611.415L635.466,614.038L633.723,616.674L631.996,619.324L630.287,621.988L628.595,624.664L626.92,627.354L625.262,630.057L623.621,632.772L621.997,635.5L620.389,638.24L618.797,640.993L617.223,643.758L615.664,646.535L614.123,649.323L612.597,652.124L611.087,654.935L609.594,657.759L608.117,660.593L606.655,663.438L605.209,666.295L603.78,669.162L602.365,672.039L600.967,674.927L599.584,677.825L598.216,680.733L596.863,683.651L595.526,686.579L594.204,689.516L592.897,692.463L591.605,695.419L590.327,698.384L589.065,701.359L587.817,704.341L586.584,707.333L585.365,710.333L584.16,713.341L582.97,716.357L581.794,719.381L580.632,722.413L579.485,725.453L578.351,728.5L577.23,731.554L576.124,734.616L575.031,737.685L573.952,740.76L572.886,743.842L571.833,746.93L570.794,750.025L569.767,753.126L568.754,756.233L567.753,759.346L566.766,762.465L565.791,765.589L564.828,768.718L563.879,771.853L562.941,774.992L562.016,778.137L561.103,781.286L560.202,784.44L559.313,787.598L558.436,790.761L557.571,793.927L556.717,797.098L555.875,800.272L555.044,803.449L554.225,806.631L553.417,809.815L552.62,813.002L551.834,816.193L551.059,819.386L550.295,822.582L549.541,825.78L548.798,828.981L548.066,832.184L547.344,835.388L546.632,838.595L545.931,841.803L545.239,845.013L544.558,848.224L543.886,851.436L543.224,854.65L542.571,857.864L541.929,861.078L541.295,864.294L540.671,867.51L540.056,870.726L539.45,873.942L538.853,877.158L538.265,880.373L537.685,883.589L537.115,886.804L536.552,890.018L535.999,893.231L535.453,896.443L534.916,899.654L534.386,902.863L533.865,906.072L533.352,909.278L532.846,912.483L532.348,915.685L531.857,918.889L531.183,923.336L530.493,927.957L529.798,932.743L529.455,935.175L529.114,937.649L528.777,940.154L528.447,942.689L528.123,945.252L527.809,947.84L527.504,950.453L527.211,953.088L526.931,955.743L526.665,958.416L526.414,961.106L526.181,963.81L525.965,966.527L525.769,969.253L525.594,971.989L525.441,974.73L525.311,977.476L525.206,980.224L525.127,982.99L525.098,984.347L525.076,985.72L525.061,987.092L525.053,988.462L525.052,989.831L525.059,991.198L525.074,992.563L525.097,993.926L525.128,995.286L525.167,996.644L525.214,997.998L525.27,999.348L525.334,1000.7L525.408,1002.04L525.49,1003.38L525.581,1004.71L525.681,1006.04L525.791,1007.37L525.91,1008.68L526.038,1010L526.176,1011.3L526.324,1012.61L526.482,1013.9L526.65,1015.19L526.828,1016.47L527.016,1017.74L527.215,1019.01L527.424,1020.27L527.643,1021.51L527.873,1022.76L528.114,1023.99L528.365,1025.21L528.628,1026.42L528.901,1027.63L529.185,1028.82L529.481,1030.01L529.787,1031.18L530.105,1032.34L530.433,1033.49L530.773,1034.63L531.124,1035.76L531.486,1036.88L531.86,1037.98L532.245,1039.07L532.641,1040.15L533.048,1041.21L533.467,1042.27L533.896,1043.31L534.337,1044.33L534.789,1045.34L535.252,1046.33L535.726,1047.32L536.21,1048.28L536.706,1049.23L537.212,1050.17L537.729,1051.09L538.256,1051.99L538.793,1052.88L539.341,1053.75L539.899,1054.6L540.466,1055.44L541.044,1056.26L541.631,1057.06L542.227,1057.85L542.833,1058.62L543.448,1059.38L544.072,1060.11L544.705,1060.83L545.347,1061.53L545.997,1062.21L546.655,1062.88L547.356,1063.56L547.659,1063.85L547.998,1064.16L548.338,1064.47L548.68,1064.78L549.025,1065.08L549.372,1065.38L549.721,1065.67L550.071,1065.96L550.424,1066.24L550.779,1066.52L551.136,1066.8L551.485,1067.06L552.039,1067.47L552.572,1067.86L553.092,1068.22L553.599,1068.57L554.093,1068.9L554.573,1069.21L555.04,1069.5L555.491,1069.77L555.926,1070.03L556.347,1070.27L556.752,1070.49L557.14,1070.69L557.511,1070.88L557.865,1071.06L558.2,1071.21L558.517,1071.36L558.816,1071.49L559.096,1071.6L559.356,1071.7L559.597,1071.8L559.817,1071.87L560.016,1071.94L560.186,1071.99L560.217,1071.98L560.371,1071.9L560.54,1071.81L560.722,1071.71L560.916,1071.6L561.124,1071.48L561.343,1071.35L561.574,1071.2L561.816,1071.05L562.068,1070.88L562.331,1070.71L562.604,1070.52L562.886,1070.32L563.176,1070.1L563.476,1069.88L563.783,1069.64L564.098,1069.4L564.42,1069.14L564.748,1068.87L565.083,1068.59L565.425,1068.29L565.772,1067.99L566.124,1067.68L566.482,1067.35L566.843,1067.02L567.209,1066.67L567.58,1066.31L567.955,1065.95L568.333,1065.57L568.714,1065.18L569.099,1064.79L569.456,1064.41L570.27,1063.54L571.062,1062.67L571.862,1061.76L572.669,1060.81L573.481,1059.84L574.298,1058.83L575.118,1057.79L575.94,1056.72L576.764,1055.63L577.59,1054.51L578.416,1053.37L579.242,1052.2L580.067,1051.02L580.892,1049.81L581.715,1048.57L582.545,1047.31L583.371,1046.04L584.193,1044.76L585.857,1042.14L587.497,1039.52L589.124,1036.86L590.735,1034.19L592.332,1031.49L593.914,1028.77L595.481,1026.03L597.031,1023.27L598.565,1020.49L600.082,1017.69L601.583,1014.87L603.066,1012.03L604.531,1009.17L605.979,1006.3L607.408,1003.41L608.819,1000.5L610.21,997.575L611.582,994.636L612.935,991.681L614.268,988.713L615.58,985.73L616.872,982.735L618.142,979.726L619.392,976.705L620.62,973.673L621.826,970.63L623.01,967.575L624.171,964.511L625.31,961.437L626.426,958.355L627.518,955.264L628.586,952.164L629.631,949.058L630.651,945.944L631.646,942.824L632.617,939.699L633.562,936.568L634.482,933.432L635.376,930.292L636.244,927.148L637.086,924.002L637.901,920.852L638.693,917.686L639.073,916.124L639.45,914.547L639.82,912.971L640.184,911.393L640.54,909.816L640.889,908.239L641.232,906.661L641.567,905.084L641.895,903.507L642.216,901.93L642.53,900.353L642.837,898.777L643.136,897.201L643.428,895.626L643.713,894.051L643.991,892.477L644.261,890.903L644.524,889.33L644.779,887.758L645.027,886.187L645.268,884.617L645.501,883.047L645.726,881.479L645.944,879.912L646.154,878.346L646.356,876.782L646.551,875.219L646.738,873.657L646.918,872.097L647.089,870.538L647.253,868.981L647.409,867.425L647.557,865.872L647.697,864.32L647.829,862.77L647.953,861.222L648.069,859.676L648.178,858.132L648.278,856.59L648.369,855.056L648.515,852.34L648.643,849.623L648.755,846.898L648.85,844.165L648.93,841.424L648.994,838.677L649.044,835.924L649.081,833.164L649.104,830.398L649.114,827.627L649.113,824.851L649.1,822.07L649.076,819.284L649.043,816.495L649,813.701L648.948,810.904L648.888,808.103L648.82,805.308L648.665,799.685L648.487,794.064L648.292,788.437L648.085,782.808L647.87,777.176L647.445,765.968L647.364,764.047L647.28,762.429L647.191,761.04L647.098,759.839L647.002,758.782L646.902,757.816L646.795,756.887L646.679,755.933L646.422,753.847L646.282,752.627L646.142,751.284L646.004,749.796L645.871,748.141L645.745,746.293L645.624,744.188L645.573,742.989L645.534,741.647L645.506,740.215L645.487,738.697L645.469,735.623L645.474,732.658L645.496,730.14L645.514,729.089L645.538,728.18L645.588,727.136L645.655,726.568L646.055,724.489L646.763,722.435L646.768,722.423L647.78,720.411L649.083,718.473L650.661,716.629L652.495,714.903L654.566,713.313L656.848,711.878L659.315,710.615L661.938,709.538L664.688,708.661L667.531,707.993L670.436,707.541L673.368,707.312L676.293,707.308L679.178,707.528L681.989,707.971L684.693,708.631L687.258,709.501L689.656,710.57L691.858,711.826L693.839,713.254L695.576,714.839L697.047,716.56L698.238,718.4L698.243,718.409L699.032,720.071L699.595,721.791L699.927,723.552L699.989,724.063L700.036,724.857L700.063,725.72L699.969,727.818L699.947,727.928L699.93,729.818L699.925,732.578L699.942,735.451L699.959,736.78L699.983,737.998L700.013,739.025L700.047,739.831L700.148,741.585L700.253,743.125L700.36,744.455L700.468,745.619L700.577,746.664L700.688,747.636L700.933,749.625L701.063,750.692L701.197,751.864L701.331,753.149L701.459,754.562L701.579,756.121L701.69,757.848L701.791,759.772L701.879,761.888L702.307,773.147L702.522,778.795L702.731,784.47L702.928,790.167L703.109,795.884L703.268,801.61L703.337,804.49L703.399,807.367L703.452,810.247L703.497,813.129L703.531,816.015L703.556,818.903L703.569,821.792L703.571,824.684L703.56,827.577L703.536,830.471L703.497,833.367L703.445,836.263L703.377,839.159L703.293,842.056L703.192,844.952L703.073,847.849L702.937,850.744L702.781,853.633L702.681,855.321L702.571,857.006L702.453,858.691L702.326,860.378L702.191,862.067L702.047,863.756L701.894,865.446L701.733,867.138L701.564,868.831L701.386,870.524L701.199,872.218L701.004,873.914L700.801,875.61L700.59,877.307L700.37,879.004L700.142,880.702L699.906,882.401L699.662,884.1L699.409,885.799L699.149,887.499L698.881,889.2L698.604,890.9L698.32,892.601L698.028,894.302L697.728,896.003L697.42,897.705L697.105,899.406L696.781,901.107L696.451,902.808L696.112,904.509L695.766,906.21L695.412,907.91L695.051,909.61L694.682,911.31L694.305,913.009L693.922,914.708L693.531,916.406L693.132,918.104L692.726,919.801L692.31,921.512L691.466,924.887L690.589,928.274L689.684,931.656L688.752,935.034L687.791,938.408L686.803,941.776L685.788,945.138L684.746,948.494L683.677,951.843L682.582,955.185L681.461,958.519L680.314,961.846L679.142,965.164L677.944,968.473L676.722,971.773L675.475,975.063L674.204,978.342L672.908,981.611L671.589,984.869L670.246,988.115L668.88,991.349L667.491,994.571L666.079,997.779L664.645,1000.98L663.188,1004.16L661.71,1007.32L660.21,1010.48L658.688,1013.61L657.145,1016.73L655.581,1019.84L653.997,1022.93L652.392,1026L650.767,1029.06L649.121,1032.09L647.456,1035.11L645.772,1038.11L644.068,1041.09L642.346,1044.05L640.604,1046.99L638.844,1049.91L637.065,1052.82L635.268,1055.69L633.464,1058.54L632.539,1059.97L631.611,1061.4L630.635,1062.88L629.637,1064.38L628.625,1065.86L627.599,1067.34L626.558,1068.81L625.501,1070.27L624.427,1071.73L623.337,1073.17L622.229,1074.61L621.103,1076.03L619.956,1077.45L618.789,1078.85L617.6,1080.24L616.387,1081.62L615.149,1082.99L613.917,1084.31L613.244,1085.02L612.595,1085.68L611.938,1086.35L611.273,1087.01L610.6,1087.67L609.919,1088.33L609.23,1088.98L608.53,1089.62L607.823,1090.27L607.106,1090.91L606.379,1091.54L605.642,1092.17L604.894,1092.8L604.136,1093.42L603.365,1094.04L602.583,1094.66L601.789,1095.27L600.983,1095.87L600.163,1096.47L599.33,1097.06L598.483,1097.65L597.621,1098.24L596.744,1098.81L595.853,1099.38L594.944,1099.95L594.021,1100.5L593.08,1101.05L592.122,1101.6L591.145,1102.13L590.151,1102.65L589.139,1103.17L588.105,1103.68L587.055,1104.17L585.986,1104.66L584.896,1105.13L583.785,1105.59L582.656,1106.04L581.504,1106.47L580.335,1106.89L579.147,1107.3L577.936,1107.68L576.71,1108.05L575.463,1108.41L574.199,1108.74L572.919,1109.05L571.621,1109.34L570.307,1109.61L568.981,1109.86L567.641,1110.09L566.291,1110.29L564.932,1110.46L563.561,1110.61L562.184,1110.73L560.804,1110.83L559.419,1110.9L558.031,1110.95L556.643,1110.97L555.257,1110.96L553.875,1110.92L552.497,1110.86L551.122,1110.77L549.756,1110.66L548.4,1110.52L547.053,1110.35L545.716,1110.16L544.389,1109.95L543.077,1109.71L541.779,1109.45L540.492,1109.17L539.22,1108.86L537.962,1108.54L536.719,1108.19L535.491,1107.83L534.278,1107.44L533.077,1107.04L531.892,1106.62L530.722,1106.18L529.566,1105.73L528.423,1105.25L527.294,1104.77L526.177,1104.26L525.072,1103.74L523.98,1103.2L522.9,1102.65L521.83,1102.09L520.772,1101.51L519.724,1100.91L518.684,1100.3L517.655,1099.68L516.634,1099.04L515.621,1098.39L514.616,1097.72L513.619,1097.04L512.628,1096.34L511.644,1095.63L510.675,1094.91L509.962,1094.38L509.269,1093.84L508.583,1093.3L507.905,1092.75L507.236,1092.2L506.575,1091.64L505.923,1091.09L505.279,1090.52L504.643,1089.96L504.014,1089.38L503.394,1088.81L502.749,1088.2L501.582,1087.07L500.414,1085.88L499.276,1084.68L498.169,1083.47L497.091,1082.25L496.043,1081.02L495.024,1079.77L494.034,1078.51L493.071,1077.24L492.136,1075.96L491.227,1074.66L490.345,1073.36L489.489,1072.05L488.658,1070.73L487.852,1069.4L487.07,1068.06L486.312,1066.71L485.578,1065.36L484.866,1063.99L484.178,1062.62L483.511,1061.24L482.865,1059.85L482.241,1058.45L481.638,1057.05L481.054,1055.64L480.491,1054.23L479.948,1052.81L479.423,1051.38L478.918,1049.95L478.43,1048.51L477.961,1047.06L477.51,1045.61L477.076,1044.15L476.659,1042.69L476.258,1041.23L475.874,1039.76L475.506,1038.28L475.154,1036.81L474.818,1035.32L474.496,1033.84L474.19,1032.34L473.898,1030.85L473.62,1029.35L473.356,1027.85L473.107,1026.35L472.87,1024.84L472.647,1023.33L472.437,1021.82L472.24,1020.31L472.055,1018.79L471.882,1017.27L471.722,1015.75L471.573,1014.23L471.435,1012.71L471.309,1011.18L471.194,1009.66L471.09,1008.13L470.997,1006.61L470.914,1005.08L470.841,1003.56L470.778,1002.03L470.724,1000.5L470.68,998.979L470.646,997.455L470.62,995.931L470.604,994.408L470.596,992.887L470.596,991.367L470.605,989.849L470.622,988.332L470.646,986.818L470.679,985.29L470.765,982.292L470.88,979.288L471.021,976.298L471.187,973.323L471.376,970.365L471.588,967.427L471.819,964.509L472.069,961.613L472.337,958.742L472.62,955.897L472.917,953.08L473.227,950.293L473.548,947.538L473.879,944.816L474.218,942.13L474.563,939.481L474.914,936.872L475.268,934.304L475.625,931.772L476.336,926.873L477.039,922.163L477.722,917.661L478.221,914.402L478.729,911.137L479.245,907.869L479.769,904.597L480.301,901.323L480.841,898.047L481.39,894.767L481.947,891.486L482.513,888.202L483.088,884.917L483.672,881.629L484.264,878.34L484.866,875.049L485.477,871.757L486.098,868.464L486.728,865.169L487.368,861.874L488.017,858.578L488.676,855.281L489.346,851.983L490.025,848.686L490.715,845.388L491.415,842.089L492.125,838.791L492.847,835.494L493.578,832.196L494.321,828.9L495.075,825.603L495.84,822.308L496.616,819.014L497.403,815.721L498.202,812.429L499.013,809.138L499.835,805.85L500.669,802.562L501.515,799.277L502.374,795.994L503.244,792.713L504.127,789.434L505.022,786.158L505.93,782.884L506.851,779.613L507.784,776.345L508.731,773.08L509.691,769.819L510.663,766.56L511.65,763.305L512.65,760.054L513.663,756.807L514.69,753.563L515.731,750.324L516.787,747.089L517.856,743.858L518.939,740.632L520.037,737.41L521.15,734.193L522.277,730.982L523.419,727.775L524.576,724.574L525.748,721.378L526.936,718.187L528.138,715.003L529.357,711.824L530.59,708.651L531.84,705.484L533.105,702.324L534.387,699.17L535.684,696.022L536.998,692.882L538.329,689.748L539.675,686.621L541.039,683.501L542.42,680.389L543.817,677.284L545.232,674.187L546.664,671.098L548.113,668.016L549.58,664.943L551.064,661.877L552.567,658.82L554.087,655.772L555.626,652.732L557.183,649.701L558.758,646.679L560.352,643.666L561.964,640.662L563.596,637.668L565.246,634.683L566.916,631.708L568.605,628.742L570.313,625.787L572.041,622.842L573.789,619.907L575.556,616.983L577.344,614.069L579.152,611.166L580.98,608.273L582.829,605.392L584.698,602.522L586.589,599.664L588.5,596.817L590.432,593.981L592.386,591.158L594.361,588.346L596.358,585.547L598.377,582.76L600.417,579.985L602.48,577.223L604.565,574.474L606.672,571.738L608.79,569.03L609.876,567.659L610.955,566.305L612.039,564.956L613.13,563.609L614.226,562.266L615.329,560.926L616.437,559.59L617.55,558.257L618.67,556.928L619.795,555.603L620.927,554.28L622.064,552.962L623.207,551.647L624.356,550.335L625.511,549.027L626.672,547.723L627.839,546.423L629.012,545.126L630.192,543.833L631.377,542.544L632.568,541.258L633.765,539.976L634.969,538.698L636.178,537.424L637.394,536.153L638.616,534.887L639.844,533.624L641.079,532.366L642.319,531.111L643.566,529.86L644.819,528.613L646.078,527.37L647.344,526.131L648.651,524.863L650.053,523.524L651.582,522.096L653.202,520.612L654.911,519.074L656.712,517.48L658.601,515.833L660.578,514.135L662.64,512.387L664.787,510.592L667.015,508.753L669.322,506.873L671.706,504.954L674.164,503L676.694,501.014L679.293,498.999L681.958,496.958L684.687,494.894L687.478,492.812L690.326,490.713L693.212,488.615L694.702,487.543L696.188,486.482L697.686,485.419L699.196,484.355L700.718,483.291L702.252,482.226L703.797,481.162L705.353,480.098L706.921,479.035L708.498,477.973L710.086,476.914L711.683,475.856L713.29,474.802L714.906,473.75L716.532,472.702L718.166,471.658L719.808,470.618L721.459,469.582L723.117,468.552L724.784,467.528L726.457,466.509L728.138,465.497L729.826,464.492L731.521,463.493L733.222,462.503L734.93,461.52L736.643,460.546L738.363,459.58L740.089,458.624L741.821,457.677L743.558,456.74L745.3,455.814L747.049,454.899L748.802,453.995L750.561,453.102L752.325,452.222L754.095,451.354L755.87,450.498L757.65,449.657L759.436,448.829L761.227,448.015L763.025,447.216L764.828,446.432L766.637,445.663L768.453,444.911L770.275,444.175L772.105,443.456L773.942,442.755L775.787,442.072L777.64,441.408L779.502,440.763L781.374,440.138L783.256,439.535L785.149,438.952L787.053,438.393L788.969,437.856L790.834,437.361L791.866,437.099L792.839,436.859L793.816,436.625L794.797,436.399L795.782,436.179L796.77,435.966L797.763,435.761L798.759,435.563L799.761,435.373L800.766,435.191L801.776,435.017L802.79,434.852L803.809,434.694L804.832,434.546L805.86,434.407L806.893,434.277L807.931,434.157L808.973,434.046ZM645.995,732.512L646.153,732.798L645.927,731.951L645.995,732.512Z"/>
    </g>
    <g transform="matrix(0.103549,0.0161449,-0.0113995,0.146655,-35.1239,-73.873)">
        <path d="M730.363,783.92L731.789,783.834L733.213,783.801L734.631,783.822L736.041,783.895L737.438,784.021L738.817,784.2L740.177,784.431L741.511,784.713L742.818,785.046L744.093,785.429L745.333,785.86L746.535,786.339L747.694,786.864L748.809,787.434L749.876,788.048L750.891,788.702L751.853,789.397L752.759,790.129L753.606,790.897L754.391,791.699L755.114,792.532L755.771,793.395L756.361,794.284L756.882,795.198L757.333,796.134L757.712,797.089L758.019,798.061L758.253,799.047L758.413,800.045L758.499,801.051L758.51,802.063L758.446,803.078L758.308,804.093L758.096,805.106L757.811,806.114L757.452,807.114L757.022,808.103L756.522,809.078L755.952,810.038L755.315,810.979L754.611,811.898L753.844,812.794L753.015,813.663L752.127,814.503L751.181,815.313L750.181,816.089L749.129,816.83L748.028,817.534L746.881,818.199L745.692,818.822L744.463,819.402L743.198,819.939L741.9,820.429L740.573,820.872L739.221,821.266L737.195,821.816L735.12,822.373L733.047,822.923L730.953,823.474L726.834,824.541L722.696,825.592L718.564,826.622L714.436,827.633L710.315,828.626L706.199,829.602L702.09,830.562L697.987,831.507L693.892,832.438L689.804,833.357L685.723,834.265L681.651,835.163L677.587,836.051L673.523,836.934L665.453,838.673L657.408,840.396L649.403,842.109L641.429,843.823L637.472,844.68L633.519,845.54L629.578,846.405L625.65,847.274L621.733,848.149L617.83,849.031L613.939,849.921L610.133,850.803L609.097,851.05L608.128,851.293L607.15,851.55L606.163,851.82L605.167,852.103L604.165,852.399L603.154,852.708L602.137,853.03L601.112,853.365L600.082,853.712L599.045,854.072L598.003,854.445L596.955,854.829L595.903,855.225L594.846,855.633L593.784,856.053L592.72,856.483L591.652,856.925L590.58,857.378L589.506,857.841L588.43,858.314L587.352,858.797L586.272,859.29L585.191,859.793L584.11,860.304L583.027,860.825L581.944,861.354L580.862,861.891L579.779,862.437L578.698,862.99L577.617,863.55L577.069,863.839L577.001,863.882L576.671,864.103L576.249,864.391L575.756,864.734L575.238,865.099L573.983,866.002L572.668,866.968L571.31,867.978L569.961,868.993L568.666,869.976L567.471,870.889L565.488,872.411L564.71,873.006L563.772,873.709L563.224,874.087L562.196,874.763L561.125,875.405L560.014,876.011L558.868,876.579L557.687,877.108L556.475,877.597L555.236,878.044L553.971,878.448L552.685,878.808L552.677,878.81L551.304,879.141L549.915,879.422L548.512,879.652L547.099,879.83L545.682,879.956L544.262,880.03L542.845,880.051L541.434,880.019L540.033,879.934L538.646,879.798L537.276,879.609L535.927,879.368L534.604,879.077L533.308,878.736L532.045,878.345L530.817,877.907L529.628,877.421L528.481,876.89L527.38,876.315L526.326,875.698L525.323,875.039L524.374,874.342L523.481,873.607L522.647,872.837L521.874,872.034L521.164,871.199L520.519,870.337L519.941,869.448L519.431,868.535L518.991,867.6L518.622,866.647L518.325,865.678L518.1,864.694L517.949,863.7L517.871,862.698L517.868,861.69L517.938,860.679L518.083,859.668L518.3,858.66L518.59,857.657L518.953,856.662L519.386,855.678L519.89,854.708L520.461,853.754L521.1,852.818L521.804,851.904L522.571,851.014L522.585,850.999L523.252,850.296L523.958,849.611L524.702,848.946L524.984,848.704L525.956,847.91L526.981,847.15L527.202,847.001L528.954,845.657L530.264,844.656L531.713,843.556L533.268,842.386L534.896,841.175L536.57,839.947L538.23,838.752L539.118,838.125L539.983,837.524L540.861,836.924L541.763,836.322L542.709,835.709L543.734,835.069L544.905,834.372L546.054,833.735L547.684,832.878L549.091,832.148L550.509,831.423L551.938,830.703L553.379,829.987L554.831,829.278L556.295,828.574L557.77,827.876L559.257,827.185L560.756,826.501L562.266,825.824L563.787,825.155L565.321,824.494L566.866,823.841L568.424,823.197L569.993,822.562L571.574,821.937L573.167,821.322L574.773,820.718L576.391,820.124L578.021,819.542L579.664,818.971L581.319,818.413L582.987,817.868L584.667,817.336L586.361,816.818L588.067,816.314L589.786,815.825L591.518,815.352L593.263,814.894L595.021,814.454L596.717,814.048L600.89,813.081L604.985,812.145L609.073,811.221L613.153,810.309L617.226,809.408L621.292,808.517L625.349,807.633L629.404,806.755L637.463,805.023L645.496,803.304L653.49,801.592L661.455,799.875L665.406,799.017L669.354,798.154L673.29,797.286L677.215,796.413L681.128,795.534L685.028,794.647L688.915,793.751L692.79,792.846L696.652,791.93L700.5,791.003L704.335,790.064L708.157,789.111L711.964,788.144L715.78,787.156L717.65,786.664L719.538,786.163L721.422,785.657L723.351,785.133L724.725,784.788L726.117,784.494L727.524,784.251L728.94,784.059L730.363,783.92ZM566.7,871.26L565.784,872.086L566.648,871.344L566.97,870.99L566.7,871.26Z"/>
    </g>
    <g transform="matrix(0.0806866,0.0234958,-0.0132344,0.143247,-11.0577,-78.6701)">
        <path d="M1222.57,362.27L1224.39,361.99L1226.19,361.725L1227.93,361.483L1229.65,361.254L1231.37,361.037L1233.08,360.832L1234.79,360.639L1236.5,360.458L1238.2,360.289L1239.9,360.132L1241.6,359.986L1243.29,359.853L1244.98,359.732L1246.66,359.623L1248.34,359.525L1250.01,359.44L1251.68,359.367L1253.34,359.306L1255,359.256L1256.65,359.219L1258.3,359.194L1259.94,359.18L1261.57,359.179L1263.2,359.19L1264.82,359.212L1266.44,359.246L1268.04,359.292L1269.64,359.35L1271.24,359.419L1272.83,359.501L1274.41,359.593L1275.98,359.698L1277.54,359.813L1279.1,359.941L1280.65,360.08L1282.19,360.229L1283.72,360.391L1285.24,360.563L1286.76,360.747L1288.26,360.941L1289.76,361.147L1291.25,361.363L1292.73,361.59L1294.2,361.828L1295.66,362.076L1297.11,362.335L1298.55,362.604L1299.98,362.884L1301.41,363.174L1302.82,363.474L1304.22,363.784L1305.62,364.103L1307,364.433L1308.37,364.773L1309.74,365.122L1311.09,365.48L1312.43,365.848L1313.77,366.226L1315.09,366.612L1316.41,367.008L1317.71,367.413L1319,367.827L1320.29,368.25L1321.56,368.681L1322.82,369.121L1324.08,369.57L1325.32,370.027L1326.55,370.492L1327.78,370.966L1328.99,371.448L1330.19,371.938L1331.38,372.436L1332.57,372.942L1333.74,373.456L1334.9,373.978L1336.06,374.507L1337.2,375.045L1338.33,375.589L1339.46,376.141L1340.57,376.701L1341.68,377.268L1342.77,377.842L1343.86,378.423L1344.94,379.011L1346,379.607L1347.06,380.209L1348.11,380.818L1349.15,381.434L1350.18,382.057L1351.2,382.686L1352.21,383.323L1353.21,383.966L1354.21,384.615L1355.19,385.271L1356.17,385.933L1357.13,386.602L1358.09,387.277L1359.04,387.958L1359.98,388.646L1360.91,389.339L1361.84,390.039L1362.75,390.745L1363.66,391.457L1364.56,392.175L1365.45,392.898L1366.33,393.628L1367.2,394.363L1368.07,395.104L1368.92,395.852L1369.77,396.604L1370.61,397.363L1371.45,398.127L1372.27,398.896L1373.09,399.672L1373.89,400.452L1374.7,401.239L1375.49,402.031L1376.27,402.827L1377.05,403.63L1377.84,404.462L1379.34,406.069L1380.82,407.721L1382.28,409.395L1383.7,411.088L1385.1,412.802L1386.47,414.536L1387.81,416.289L1389.11,418.062L1390.39,419.854L1391.64,421.665L1392.87,423.495L1394.06,425.343L1395.23,427.209L1396.37,429.094L1397.48,430.996L1398.57,432.916L1399.62,434.853L1400.65,436.808L1401.65,438.779L1402.63,440.767L1403.58,442.772L1404.5,444.793L1405.4,446.83L1406.27,448.883L1407.11,450.952L1407.93,453.035L1408.72,455.134L1409.48,457.249L1410.22,459.377L1410.93,461.521L1411.62,463.679L1412.28,465.851L1412.91,468.037L1413.52,470.236L1414.1,472.449L1414.66,474.676L1415.19,476.915L1415.69,479.167L1416.17,481.432L1416.63,483.709L1417.06,485.999L1417.46,488.3L1417.84,490.613L1418.19,492.937L1418.51,495.273L1418.81,497.62L1419.09,499.978L1419.34,502.346L1419.56,504.725L1419.76,507.114L1419.93,509.513L1420.08,511.922L1420.2,514.34L1420.3,516.767L1420.37,519.204L1420.42,521.649L1420.44,524.103L1420.43,526.565L1420.4,529.036L1420.35,531.514L1420.27,534L1420.16,536.494L1420.03,538.995L1419.87,541.502L1419.68,544.017L1419.48,546.539L1419.24,549.066L1418.98,551.6L1418.69,554.161L1418.49,555.771L1418.26,557.402L1418,559.03L1417.71,560.656L1417.4,562.28L1417.06,563.901L1416.7,565.519L1416.32,567.134L1415.91,568.745L1415.48,570.353L1415.03,571.958L1414.55,573.559L1414.06,575.155L1413.54,576.748L1413.01,578.337L1412.45,579.921L1411.88,581.5L1411.29,583.075L1410.68,584.645L1410.06,586.208L1409.42,587.768L1408.76,589.322L1408.09,590.87L1407.4,592.412L1406.7,593.949L1405.99,595.479L1405.26,597.002L1404.52,598.52L1403.76,600.032L1403,601.536L1402.22,603.033L1401.43,604.522L1400.64,606.005L1399.83,607.481L1399.01,608.949L1398.19,610.409L1397.35,611.861L1396.51,613.304L1395.66,614.74L1394.81,616.167L1393.95,617.585L1393.08,618.995L1392.2,620.396L1391.33,621.787L1390.45,623.169L1389.55,624.561L1387.78,627.256L1385.99,629.931L1384.19,632.564L1382.39,635.153L1380.59,637.698L1378.8,640.196L1377.02,642.646L1375.25,645.045L1373.49,647.402L1372,649.372L1370.49,651.347L1368.96,653.318L1367.41,655.286L1365.84,657.251L1364.26,659.213L1362.66,661.172L1361.04,663.128L1359.4,665.08L1357.75,667.029L1356.08,668.974L1354.39,670.917L1352.69,672.856L1350.97,674.792L1349.24,676.724L1347.5,678.654L1345.73,680.58L1343.96,682.502L1342.17,684.421L1340.36,686.337L1338.55,688.249L1336.71,690.158L1334.87,692.063L1333.01,693.965L1331.14,695.864L1329.26,697.758L1327.37,699.65L1325.46,701.538L1323.54,703.422L1321.62,705.303L1319.67,707.18L1317.73,709.054L1315.76,710.924L1313.79,712.79L1311.81,714.653L1309.82,716.512L1307.82,718.367L1305.81,720.219L1303.79,722.067L1301.76,723.911L1299.73,725.752L1297.68,727.589L1295.63,729.421L1293.57,731.25L1291.5,733.076L1289.42,734.898L1287.34,736.715L1285.25,738.529L1283.16,740.339L1281.06,742.145L1278.95,743.947L1276.82,745.757L1272.59,749.329L1268.33,752.897L1264.05,756.449L1259.75,759.985L1255.43,763.504L1251.11,767.006L1246.78,770.491L1242.43,773.96L1238.08,777.411L1233.73,780.844L1229.37,784.26L1225.02,787.658L1220.66,791.038L1216.31,794.399L1211.97,797.742L1207.63,801.066L1203.3,804.371L1198.99,807.657L1194.68,810.923L1190.39,814.174L1181.88,820.6L1173.44,826.951L1165.11,833.217L1156.9,839.397L1148.82,845.487L1140.88,851.494L1136.99,854.452L1133.13,857.392L1129.32,860.308L1125.56,863.199L1121.84,866.064L1118.14,868.933L1115.55,870.764L1112.69,872.455L1109.58,873.988L1106.27,875.344L1102.79,876.507L1100.05,877.236L1099.67,880.332L1099.28,883.45L1098.88,886.568L1098.47,889.683L1098.05,892.798L1097.62,895.911L1097.17,899.023L1096.71,902.133L1096.25,905.257L1095.86,907.767L1095.43,910.37L1094.97,913.047L1094.48,915.795L1093.95,918.61L1093.39,921.488L1092.79,924.424L1092.15,927.415L1091.48,930.456L1090.77,933.543L1090.02,936.673L1089.24,939.842L1088.41,943.044L1087.54,946.277L1086.63,949.536L1085.68,952.8L1085.19,954.465L1084.69,956.117L1084.17,957.772L1083.65,959.431L1083.11,961.092L1082.57,962.756L1082.01,964.421L1081.44,966.088L1080.86,967.755L1080.26,969.423L1079.66,971.09L1079.04,972.757L1078.41,974.422L1077.77,976.087L1077.12,977.749L1076.45,979.409L1075.77,981.066L1075.08,982.72L1074.37,984.37L1073.65,986.016L1072.92,987.658L1072.17,989.294L1071.41,990.926L1070.63,992.552L1069.84,994.172L1069.04,995.786L1068.22,997.393L1067.38,998.993L1066.53,1000.59L1065.66,1002.17L1064.77,1003.75L1063.87,1005.32L1062.95,1006.88L1062.01,1008.43L1061.05,1009.97L1060.07,1011.5L1059.07,1013.03L1058.05,1014.55L1057.01,1016.05L1055.95,1017.55L1054.86,1019.03L1053.75,1020.51L1052.61,1021.97L1051.45,1023.43L1050.26,1024.87L1049.04,1026.31L1047.78,1027.73L1046.5,1029.14L1045.17,1030.55L1043.82,1031.94L1042.47,1033.28L1041.71,1034.01L1040.98,1034.7L1040.25,1035.38L1039.5,1036.06L1038.74,1036.74L1037.97,1037.41L1037.19,1038.08L1036.39,1038.75L1035.58,1039.42L1034.76,1040.08L1033.92,1040.74L1033.07,1041.4L1032.2,1042.06L1031.32,1042.71L1030.42,1043.36L1029.5,1044L1028.57,1044.64L1027.62,1045.28L1026.65,1045.91L1025.66,1046.54L1024.66,1047.17L1023.63,1047.79L1022.58,1048.4L1021.51,1049.01L1020.43,1049.62L1019.32,1050.22L1018.19,1050.81L1017.03,1051.39L1015.86,1051.97L1014.66,1052.54L1013.43,1053.1L1012.19,1053.66L1010.92,1054.2L1009.63,1054.73L1008.32,1055.25L1006.98,1055.76L1005.62,1056.26L1004.24,1056.74L1002.84,1057.21L1001.41,1057.67L999.969,1058.11L998.508,1058.53L997.028,1058.93L995.529,1059.32L994.017,1059.69L992.493,1060.04L990.951,1060.37L989.401,1060.68L987.842,1060.96L986.271,1061.23L984.697,1061.47L983.116,1061.7L981.533,1061.89L979.952,1062.07L978.368,1062.22L976.783,1062.35L975.205,1062.46L973.632,1062.54L972.065,1062.6L970.506,1062.64L968.954,1062.66L967.412,1062.65L965.885,1062.62L964.366,1062.58L962.859,1062.51L961.367,1062.42L959.889,1062.31L958.425,1062.18L956.974,1062.03L955.537,1061.87L954.117,1061.69L952.713,1061.49L951.322,1061.27L949.945,1061.03L948.585,1060.79L947.236,1060.52L945.903,1060.24L944.586,1059.94L943.28,1059.64L941.986,1059.31L940.707,1058.97L939.44,1058.62L938.184,1058.26L936.939,1057.88L935.707,1057.49L934.483,1057.09L933.27,1056.68L932.067,1056.25L930.873,1055.81L929.681,1055.36L928.025,1054.7L926.382,1054.03L924.76,1053.35L923.157,1052.65L921.574,1051.93L920.011,1051.2L918.469,1050.46L916.946,1049.7L915.443,1048.92L913.961,1048.14L912.498,1047.34L911.056,1046.52L909.634,1045.69L908.232,1044.85L906.85,1043.99L905.488,1043.12L904.145,1042.24L902.823,1041.34L901.52,1040.43L900.238,1039.51L898.974,1038.58L897.731,1037.63L896.506,1036.67L895.301,1035.7L894.115,1034.71L892.948,1033.72L891.8,1032.71L890.67,1031.69L889.559,1030.65L888.466,1029.61L887.392,1028.55L886.335,1027.48L885.297,1026.4L884.276,1025.31L883.272,1024.21L882.287,1023.1L881.318,1021.97L880.366,1020.83L879.431,1019.68L878.513,1018.52L877.611,1017.35L876.726,1016.17L875.857,1014.98L875.004,1013.77L874.167,1012.56L873.345,1011.33L872.539,1010.09L871.748,1008.84L870.972,1007.58L870.212,1006.31L869.466,1005.03L868.735,1003.74L868.018,1002.44L867.316,1001.12L866.628,999.794L865.954,998.458L865.294,997.11L864.648,995.751L864.016,994.381L863.397,993.001L862.791,991.609L862.199,990.206L861.62,988.793L861.053,987.365L860.222,985.206L859.406,983.016L858.607,980.797L857.824,978.55L857.056,976.276L856.304,973.973L855.568,971.644L854.847,969.288L854.141,966.906L853.45,964.498L852.774,962.065L852.114,959.607L851.468,957.124L850.837,954.617L850.22,952.086L849.618,949.532L849.031,946.955L848.458,944.356L847.9,941.735L847.356,939.092L846.827,936.428L846.312,933.744L845.811,931.04L845.325,928.316L844.853,925.573L844.395,922.811L843.951,920.031L843.522,917.234L843.106,914.419L842.705,911.587L842.318,908.74L841.945,905.876L841.586,902.997L841.242,900.104L840.911,897.196L840.594,894.274L840.292,891.339L840.003,888.391L839.728,885.431L839.468,882.459L839.221,879.476L838.989,876.482L838.771,873.477L838.566,870.463L838.376,867.439L838.199,864.407L838.037,861.366L837.889,858.318L837.754,855.262L837.634,852.199L837.528,849.13L837.435,846.056L837.357,842.976L837.292,839.891L837.242,836.802L837.206,833.709L837.184,830.613L837.176,827.514L837.181,824.413L837.201,821.31L837.235,818.205L837.283,815.101L837.345,811.995L837.421,808.89L837.512,805.786L837.616,802.683L837.734,799.582L837.867,796.483L838.013,793.388L838.174,790.295L838.349,787.206L838.538,784.121L838.741,781.041L838.959,777.967L839.19,774.898L839.436,771.835L839.696,768.78L839.97,765.731L840.259,762.691L840.562,759.658L840.879,756.635L841.21,753.62L841.556,750.616L841.916,747.622L842.291,744.638L842.679,741.666L843.083,738.705L843.501,735.757L843.933,732.821L844.38,729.898L844.841,726.989L845.317,724.094L845.807,721.214L846.313,718.349L846.832,715.499L847.367,712.665L847.917,709.848L848.481,707.047L849.06,704.264L849.654,701.499L850.263,698.752L850.887,696.023L851.527,693.314L852.181,690.624L852.851,687.954L853.536,685.305L854.237,682.676L854.953,680.069L855.685,677.483L856.433,674.919L857.197,672.378L857.977,669.859L858.773,667.363L859.585,664.891L860.414,662.443L861.26,660.018L862.122,657.618L863.002,655.243L863.899,652.893L864.814,650.568L865.747,648.269L866.699,645.995L867.669,643.747L868.658,641.525L869.667,639.33L870.695,637.161L871.745,635.018L872.809,632.915L874.146,630.346L875.515,627.78L876.919,625.205L878.36,622.622L879.837,620.032L881.348,617.434L882.894,614.828L884.475,612.217L886.09,609.598L887.738,606.974L889.419,604.343L891.133,601.708L892.879,599.067L894.658,596.422L896.468,593.773L898.309,591.119L900.181,588.462L902.083,585.802L904.016,583.139L905.978,580.473L907.969,577.805L909.99,575.136L912.038,572.465L914.115,569.793L916.22,567.121L918.352,564.449L920.512,561.776L922.698,559.104L924.91,556.433L927.148,553.764L929.412,551.095L931.701,548.429L934.015,545.766L936.354,543.105L938.716,540.448L941.103,537.794L943.513,535.144L945.946,532.498L948.401,529.857L950.88,527.222L953.38,524.591L955.902,521.967L958.445,519.349L961.009,516.738L963.594,514.134L966.199,511.537L968.824,508.948L971.469,506.367L974.133,503.795L976.816,501.232L979.518,498.679L982.238,496.135L984.976,493.601L987.732,491.078L990.504,488.566L993.295,486.065L996.101,483.576L998.925,481.099L1001.76,478.635L1004.62,476.183L1007.49,473.745L1010.38,471.321L1013.28,468.91L1016.19,466.514L1019.12,464.133L1022.06,461.767L1025.02,459.416L1027.99,457.082L1030.98,454.764L1033.97,452.462L1036.98,450.178L1040.01,447.911L1043.04,445.662L1046.09,443.431L1049.14,441.219L1052.21,439.026L1055.3,436.853L1058.39,434.699L1061.49,432.565L1064.61,430.452L1067.73,428.36L1070.87,426.289L1074.01,424.239L1077.16,422.212L1080.33,420.207L1083.51,418.225L1086.69,416.266L1089.85,414.35L1091.49,413.373L1093.09,412.42L1094.69,411.474L1096.3,410.533L1097.91,409.599L1099.52,408.671L1101.14,407.749L1102.76,406.834L1104.38,405.925L1106,405.022L1107.62,404.126L1109.25,403.237L1110.88,402.354L1112.51,401.478L1114.14,400.608L1115.78,399.745L1117.42,398.889L1119.06,398.039L1120.7,397.197L1122.35,396.362L1124,395.533L1125.64,394.712L1127.3,393.898L1128.95,393.091L1130.61,392.291L1132.27,391.499L1133.93,390.713L1135.6,389.936L1137.27,389.166L1138.94,388.403L1140.61,387.648L1142.28,386.9L1143.96,386.16L1145.64,385.429L1147.33,384.704L1149.01,383.988L1150.7,383.28L1152.39,382.58L1154.09,381.888L1155.78,381.204L1157.48,380.529L1159.19,379.862L1160.89,379.203L1162.6,378.553L1164.31,377.911L1166.03,377.278L1167.75,376.654L1169.47,376.039L1171.19,375.433L1172.92,374.836L1174.65,374.248L1176.38,373.669L1178.12,373.1L1179.86,372.54L1181.6,371.989L1183.35,371.449L1185.09,370.918L1186.85,370.397L1188.6,369.886L1190.36,369.385L1192.12,368.895L1193.89,368.415L1195.66,367.945L1197.43,367.486L1199.21,367.038L1200.99,366.601L1202.77,366.175L1204.56,365.761L1206.35,365.358L1208.14,364.966L1209.93,364.586L1211.73,364.218L1213.53,363.862L1215.33,363.519L1217.14,363.187L1218.95,362.869L1220.76,362.563L1222.57,362.27ZM1226.3,401.381L1225.35,401.549L1224.39,401.726L1223.41,401.911L1222.43,402.104L1221.45,402.307L1220.45,402.518L1219.44,402.738L1218.43,402.966L1217.4,403.204L1216.37,403.451L1215.33,403.706L1214.28,403.971L1213.23,404.245L1212.16,404.527L1211.09,404.819L1210,405.121L1208.91,405.431L1207.82,405.75L1206.71,406.079L1205.6,406.417L1204.48,406.764L1203.35,407.12L1202.21,407.486L1201.07,407.861L1199.92,408.245L1198.76,408.639L1197.6,409.041L1196.42,409.453L1195.25,409.874L1194.06,410.304L1192.87,410.744L1191.67,411.192L1190.47,411.65L1189.26,412.117L1188.05,412.593L1186.83,413.078L1185.6,413.572L1184.37,414.075L1183.13,414.587L1181.89,415.108L1180.64,415.638L1179.39,416.176L1178.13,416.724L1176.87,417.28L1175.61,417.845L1174.34,418.419L1173.06,419.001L1171.78,419.592L1170.5,420.192L1169.21,420.8L1167.92,421.416L1166.62,422.041L1165.32,422.674L1164.02,423.316L1162.71,423.966L1161.41,424.623L1160.1,425.29L1158.78,425.964L1157.46,426.646L1156.14,427.337L1154.82,428.035L1153.49,428.741L1152.16,429.455L1150.83,430.177L1149.49,430.907L1148.16,431.644L1146.82,432.388L1145.48,433.141L1144.13,433.901L1142.79,434.668L1141.44,435.443L1140.1,436.225L1138.75,437.014L1137.4,437.811L1136.04,438.614L1134.72,439.407L1131.98,441.068L1129.26,442.738L1126.55,444.435L1123.82,446.159L1121.1,447.909L1118.38,449.685L1115.65,451.486L1112.92,453.312L1110.19,455.162L1107.47,457.036L1104.75,458.933L1102.02,460.853L1099.31,462.796L1096.59,464.76L1093.88,466.746L1091.17,468.753L1088.47,470.78L1085.77,472.827L1083.08,474.894L1080.39,476.979L1077.72,479.083L1075.05,481.206L1072.38,483.345L1069.73,485.502L1067.09,487.676L1064.45,489.866L1061.83,492.071L1059.21,494.291L1056.61,496.527L1054.02,498.776L1051.44,501.039L1048.87,503.316L1046.32,505.606L1043.78,507.907L1041.25,510.221L1038.74,512.546L1036.24,514.882L1033.76,517.229L1031.29,519.585L1028.84,521.951L1026.4,524.326L1023.99,526.71L1021.59,529.102L1019.21,531.501L1016.84,533.908L1014.5,536.321L1012.17,538.741L1009.87,541.166L1007.58,543.597L1005.32,546.032L1003.07,548.472L1000.85,550.916L998.65,553.363L996.472,555.813L994.317,558.265L992.184,560.719L990.075,563.175L987.991,565.632L985.931,568.09L983.895,570.547L981.885,573.004L979.9,575.46L977.942,577.915L976.01,580.368L974.105,582.819L972.227,585.267L970.377,587.711L968.555,590.152L966.761,592.588L964.997,595.02L963.262,597.446L961.557,599.867L959.881,602.281L958.237,604.689L956.623,607.089L955.041,609.482L953.49,611.866L951.971,614.242L950.485,616.608L949.032,618.965L947.612,621.311L946.226,623.646L944.874,625.971L943.556,628.283L942.273,630.583L941.025,632.87L939.813,635.144L938.642,637.392L937.762,639.132L936.896,640.9L936.037,642.71L935.187,644.561L934.346,646.45L933.514,648.379L932.691,650.344L931.879,652.347L931.076,654.385L930.285,656.459L929.504,658.567L928.734,660.708L927.976,662.882L927.229,665.088L926.494,667.325L925.771,669.593L925.059,671.891L924.36,674.217L923.673,676.572L922.999,678.955L922.337,681.365L921.687,683.801L921.05,686.263L920.426,688.751L919.815,691.262L919.217,693.797L918.632,696.356L918.059,698.937L917.5,701.54L916.954,704.164L916.421,706.809L915.901,709.474L915.395,712.159L914.902,714.862L914.422,717.584L913.955,720.323L913.502,723.079L913.063,725.852L912.636,728.641L912.223,731.445L911.824,734.264L911.438,737.097L911.066,739.943L910.707,742.803L910.361,745.675L910.03,748.558L909.711,751.453L909.407,754.359L909.115,757.275L908.838,760.2L908.574,763.135L908.323,766.077L908.086,769.028L907.863,771.986L907.654,774.951L907.458,777.922L907.275,780.898L907.106,783.88L906.951,786.866L906.81,789.856L906.682,792.849L906.567,795.845L906.466,798.843L906.379,801.843L906.306,804.844L906.246,807.846L906.199,810.848L906.166,813.849L906.147,816.849L906.142,819.848L906.149,822.844L906.171,825.837L906.206,828.827L906.255,831.813L906.317,834.795L906.392,837.772L906.482,840.743L906.584,843.708L906.701,846.667L906.831,849.618L906.974,852.561L907.131,855.496L907.301,858.422L907.484,861.339L907.682,864.246L907.892,867.142L908.116,870.026L908.353,872.899L908.604,875.76L908.868,878.608L909.146,881.443L909.437,884.264L909.741,887.07L910.058,889.86L910.389,892.636L910.733,895.395L911.09,898.137L911.46,900.862L911.844,903.568L912.24,906.257L912.65,908.926L913.073,911.575L913.509,914.204L913.958,916.812L914.42,919.399L914.895,921.964L915.382,924.506L915.883,927.025L916.396,929.519L916.922,931.99L917.461,934.435L918.013,936.855L918.576,939.248L919.153,941.615L919.742,943.954L920.343,946.265L920.956,948.547L921.582,950.8L922.219,953.022L922.869,955.214L923.53,957.375L924.203,959.503L924.888,961.599L925.584,963.661L926.291,965.69L927.009,967.683L927.738,969.641L928.479,971.566L928.954,972.762L929.44,973.947L929.934,975.117L930.437,976.273L930.948,977.415L931.469,978.541L931.998,979.654L932.535,980.752L933.082,981.836L933.637,982.906L934.2,983.961L934.772,985.001L935.352,986.028L935.941,987.04L936.538,988.037L937.144,989.02L937.757,989.989L938.379,990.944L939.009,991.884L939.647,992.81L940.293,993.722L940.947,994.62L941.608,995.504L942.278,996.373L942.955,997.228L943.64,998.069L944.332,998.897L945.032,999.71L945.739,1000.51L946.454,1001.3L947.176,1002.07L947.905,1002.83L948.642,1003.57L949.385,1004.3L950.136,1005.02L950.894,1005.72L951.658,1006.41L952.429,1007.09L953.207,1007.76L953.993,1008.41L954.785,1009.05L955.583,1009.67L956.389,1010.29L957.201,1010.89L958.02,1011.48L958.845,1012.05L959.677,1012.62L960.516,1013.17L961.362,1013.71L962.215,1014.24L963.074,1014.75L963.941,1015.26L964.814,1015.75L965.695,1016.24L966.583,1016.71L967.478,1017.17L968.381,1017.62L969.291,1018.06L970.209,1018.49L971.134,1018.9L972.068,1019.31L973.011,1019.71L973.961,1020.1L974.926,1020.48L975.43,1020.67L975.923,1020.85L976.4,1021.02L976.859,1021.18L977.299,1021.32L977.724,1021.46L978.127,1021.58L978.512,1021.69L978.878,1021.79L979.224,1021.88L979.548,1021.96L979.851,1022.04L979.868,1022.04L980.049,1021.92L980.277,1021.76L980.514,1021.6L980.761,1021.42L981.019,1021.23L981.284,1021.03L981.559,1020.82L981.841,1020.59L982.13,1020.36L982.427,1020.12L982.732,1019.86L983.042,1019.59L983.357,1019.32L983.679,1019.03L984.006,1018.73L984.337,1018.43L984.673,1018.11L984.968,1017.82L985.706,1017.09L986.41,1016.37L987.127,1015.61L987.852,1014.81L988.584,1013.98L989.322,1013.11L990.064,1012.21L990.81,1011.28L991.557,1010.32L992.305,1009.32L993.052,1008.3L993.798,1007.25L994.543,1006.18L995.284,1005.08L996.022,1003.95L996.756,1002.8L997.486,1001.62L998.21,1000.43L998.929,999.209L999.642,997.971L1000.35,996.713L1001.05,995.436L1001.74,994.141L1002.43,992.83L1003.11,991.502L1003.78,990.158L1004.44,988.799L1005.1,987.426L1005.74,986.04L1006.38,984.64L1007.01,983.229L1007.63,981.807L1008.25,980.374L1008.85,978.931L1009.45,977.479L1010.03,976.018L1010.61,974.55L1011.18,973.074L1011.74,971.592L1012.29,970.105L1012.83,968.611L1013.37,967.114L1013.89,965.612L1014.4,964.107L1014.91,962.6L1015.4,961.09L1015.89,959.579L1016.37,958.067L1016.84,956.556L1017.3,955.044L1017.74,953.551L1018.62,950.519L1019.46,947.516L1020.26,944.529L1021.03,941.564L1021.76,938.625L1022.45,935.717L1023.11,932.845L1023.74,930.013L1024.33,927.227L1024.89,924.49L1025.41,921.808L1025.91,919.186L1026.37,916.628L1026.79,914.139L1027.19,911.724L1027.55,909.374L1028,906.357L1028.45,903.326L1028.88,900.297L1029.3,897.268L1029.71,894.241L1030.12,891.214L1030.5,888.187L1030.88,885.162L1031.25,882.136L1031.6,879.112L1031.94,876.087L1032.26,873.063L1032.57,870.039L1032.87,867.015L1033.16,863.992L1033.43,860.968L1033.69,857.944L1033.93,854.92L1034.16,851.895L1034.37,848.87L1034.57,845.845L1034.75,842.819L1034.91,839.792L1035.06,836.765L1035.19,833.737L1035.31,830.707L1035.41,827.677L1035.49,824.646L1035.55,821.614L1035.6,818.58L1035.63,815.545L1035.63,812.498L1035.63,808.357L1035.62,804.211L1035.56,795.9L1035.47,787.592L1035.35,779.281L1035.21,770.967L1035.06,762.651L1034.72,745.996L1034.39,729.332L1034.23,720.986L1034.1,712.637L1033.98,704.28L1033.89,695.917L1033.88,694.427L1033.21,693.322L1032.49,691.497L1032.21,690.563L1032.06,689.509L1031.96,687.379L1032.26,685.211L1032.91,683.219L1033.12,681.833L1033.43,679.697L1033.72,677.777L1033.89,676.8L1034.09,675.908L1034.26,675.334L1035.12,673.115L1035.14,673.084L1036.19,671.212L1037.52,669.373L1039.12,667.583L1040.99,665.858L1041,665.847L1043.42,663.97L1046.13,662.221L1049.1,660.618L1052.29,659.18L1055.66,657.925L1059.17,656.865L1062.8,656.015L1066.48,655.383L1070.18,654.976L1073.87,654.8L1077.49,654.856L1081,655.144L1084.36,655.661L1087.54,656.4L1090.49,657.353L1093.19,658.509L1095.6,659.855L1097.7,661.375L1097.71,661.385L1099.28,662.86L1100.57,664.444L1101.57,666.124L1102.27,667.883L1102.28,667.914L1102.7,670.043L1102.76,670.615L1102.78,671.392L1102.78,675.644L1102.8,679.774L1102.85,688.057L1102.94,696.341L1103.06,704.632L1103.2,712.931L1103.35,721.237L1103.69,737.883L1104.02,754.556L1104.18,762.913L1104.32,771.278L1104.43,779.654L1104.52,788.041L1104.58,796.434L1104.6,800.644L1104.6,804.861L1104.59,808.026L1104.56,811.198L1104.52,814.367L1104.45,817.533L1104.39,819.566L1105.46,818.76L1113.71,812.556L1122.03,806.298L1130.41,799.986L1138.85,793.616L1143.07,790.419L1147.3,787.206L1151.54,783.98L1155.78,780.743L1160.02,777.493L1164.26,774.233L1168.49,770.961L1172.72,767.677L1176.95,764.384L1181.16,761.079L1185.36,757.764L1189.55,754.44L1193.73,751.105L1197.89,747.761L1202.03,744.407L1206.15,741.045L1210.25,737.674L1214.32,734.295L1218.37,730.907L1222.4,727.5L1224.39,725.811L1226.38,724.109L1228.36,722.405L1230.34,720.699L1232.3,718.991L1234.26,717.282L1236.21,715.571L1238.15,713.858L1240.08,712.144L1242,710.428L1243.91,708.711L1245.82,706.993L1247.71,705.272L1249.59,703.551L1251.46,701.828L1253.32,700.104L1255.17,698.379L1257,696.652L1258.83,694.925L1260.64,693.196L1262.44,691.466L1264.23,689.735L1266.01,688.003L1267.77,686.27L1269.52,684.536L1271.26,682.802L1272.98,681.066L1274.69,679.33L1276.39,677.592L1278.07,675.854L1279.74,674.116L1281.39,672.377L1283.03,670.637L1284.65,668.897L1286.26,667.156L1287.85,665.415L1289.43,663.673L1290.99,661.931L1292.54,660.189L1294.07,658.446L1295.58,656.703L1297.07,654.96L1298.55,653.217L1300.01,651.473L1301.46,649.73L1302.88,647.986L1304.29,646.242L1305.68,644.499L1307.06,642.756L1308.41,641.012L1309.75,639.269L1311.07,637.519L1312.67,635.363L1314.3,633.165L1315.92,630.932L1317.54,628.668L1319.16,626.373L1320.78,624.05L1322.38,621.698L1323.98,619.321L1325.57,616.9L1326.33,615.71L1327.11,614.496L1327.88,613.276L1328.64,612.051L1329.4,610.822L1330.15,609.588L1330.89,608.35L1331.62,607.108L1332.35,605.861L1333.07,604.611L1333.78,603.358L1334.48,602.102L1335.17,600.842L1335.85,599.58L1336.51,598.315L1337.17,597.047L1337.82,595.778L1338.45,594.507L1339.07,593.235L1339.68,591.96L1340.28,590.685L1340.86,589.409L1341.43,588.132L1341.98,586.854L1342.52,585.576L1343.05,584.299L1343.56,583.02L1344.05,581.743L1344.53,580.467L1344.99,579.191L1345.44,577.916L1345.87,576.643L1346.28,575.372L1346.67,574.102L1347.05,572.834L1347.4,571.569L1347.74,570.305L1348.06,569.045L1348.36,567.787L1348.64,566.532L1348.9,565.281L1349.14,564.033L1349.36,562.789L1349.56,561.55L1349.73,560.314L1349.89,559.06L1350.15,556.772L1350.39,554.47L1350.6,552.173L1350.79,549.883L1350.96,547.6L1351.1,545.324L1351.22,543.055L1351.32,540.794L1351.39,538.541L1351.44,536.296L1351.47,534.06L1351.47,531.832L1351.45,529.614L1351.41,527.405L1351.35,525.206L1351.26,523.016L1351.15,520.837L1351.02,518.669L1350.86,516.511L1350.68,514.364L1350.48,512.229L1350.26,510.105L1350.01,507.993L1349.74,505.893L1349.45,503.806L1349.14,501.732L1348.8,499.67L1348.44,497.623L1348.06,495.589L1347.66,493.568L1347.24,491.562L1346.79,489.571L1346.32,487.594L1345.83,485.632L1345.32,483.686L1344.78,481.755L1344.23,479.84L1343.65,477.942L1343.05,476.06L1342.43,474.195L1341.79,472.347L1341.13,470.517L1340.45,468.704L1339.75,466.909L1339.02,465.132L1338.28,463.375L1337.51,461.635L1336.73,459.916L1335.92,458.215L1335.1,456.534L1334.25,454.874L1333.39,453.233L1332.51,451.614L1331.6,450.015L1330.68,448.437L1329.74,446.881L1328.78,445.347L1327.8,443.834L1326.81,442.344L1325.79,440.877L1324.76,439.432L1323.71,438.01L1322.64,436.612L1321.56,435.238L1320.46,433.888L1319.35,432.561L1318.21,431.26L1317.06,429.983L1315.88,428.706L1315.31,428.113L1314.72,427.503L1314.13,426.899L1313.53,426.301L1312.93,425.71L1312.32,425.125L1311.71,424.547L1311.1,423.975L1310.48,423.41L1309.86,422.851L1309.24,422.299L1308.62,421.753L1307.99,421.214L1307.35,420.682L1306.72,420.156L1306.08,419.637L1305.44,419.124L1304.8,418.619L1304.15,418.12L1303.5,417.627L1302.85,417.141L1302.19,416.663L1301.53,416.191L1300.87,415.725L1300.21,415.267L1299.55,414.816L1298.88,414.371L1298.21,413.933L1297.53,413.502L1296.86,413.078L1296.18,412.66L1295.5,412.249L1294.82,411.846L1294.14,411.449L1293.45,411.059L1292.77,410.676L1292.08,410.3L1291.39,409.93L1290.7,409.567L1290,409.211L1289.31,408.862L1288.61,408.52L1287.91,408.185L1287.21,407.856L1286.51,407.534L1285.81,407.219L1285.11,406.911L1284.4,406.609L1283.69,406.314L1282.99,406.026L1282.28,405.744L1281.57,405.469L1280.86,405.201L1280.14,404.939L1279.43,404.684L1278.72,404.435L1278,404.193L1277.29,403.957L1276.57,403.727L1275.85,403.504L1275.13,403.288L1274.41,403.078L1273.69,402.874L1272.97,402.676L1272.25,402.484L1271.52,402.299L1270.8,402.119L1270.07,401.946L1269.34,401.779L1268.61,401.618L1267.88,401.463L1267.15,401.314L1266.42,401.171L1265.68,401.034L1264.95,400.903L1264.21,400.777L1263.47,400.658L1262.73,400.544L1261.99,400.436L1261.24,400.334L1260.5,400.237L1259.75,400.146L1258.99,400.061L1258.24,399.982L1257.48,399.908L1256.72,399.84L1255.96,399.778L1255.2,399.721L1254.43,399.67L1253.65,399.625L1252.88,399.585L1252.1,399.551L1251.32,399.523L1250.53,399.5L1249.74,399.484L1248.95,399.473L1248.15,399.468L1247.34,399.468L1246.53,399.475L1245.72,399.487L1244.9,399.506L1244.08,399.53L1243.25,399.561L1242.41,399.598L1241.57,399.64L1240.72,399.69L1239.87,399.745L1239.01,399.807L1238.14,399.875L1237.27,399.95L1236.39,400.031L1235.5,400.119L1234.61,400.214L1233.71,400.316L1232.8,400.425L1231.88,400.54L1230.96,400.663L1230.04,400.791L1229.11,400.928L1228.18,401.071L1227.25,401.222L1226.3,401.381ZM1100.57,677.764L1100.6,677.728L1100.41,677.086L1100.57,677.764ZM1100.22,676.465L1099.95,675.563L1099.57,675.034L1100.22,676.465Z"/>
    </g>
    <g transform="matrix(0.0833535,0.0114587,-0.00645429,0.147982,-17.6802,-70.8722)">
        <path d="M1082.13,846.892L1085.09,846.818L1088.19,846.888L1089.88,847.012L1091.39,847.144L1092.88,847.315L1093.1,847.344L1094.6,847.561L1096.09,847.819L1097.4,848.07L1099.69,848.616L1101.5,849.109L1103.2,849.623L1104.79,850.154L1106.28,850.697L1107.68,851.249L1108.99,851.807L1110.24,852.369L1111.42,852.934L1112.54,853.501L1113.61,854.069L1114.63,854.639L1115.61,855.209L1116.55,855.779L1117.45,856.35L1118.32,856.921L1119.17,857.492L1119.99,858.063L1120.78,858.635L1121.56,859.208L1122.31,859.78L1123.04,860.352L1123.76,860.926L1124.5,861.531L1125.82,862.64L1127.12,863.786L1128.38,864.928L1129.6,866.068L1130.77,867.201L1131.91,868.326L1133.01,869.44L1134.08,870.541L1135.12,871.626L1136.13,872.706L1138.02,874.743L1141.39,878.443L1142.86,880.041L1143.5,880.718L1144.12,881.374L1148.55,885.953L1152.97,890.519L1157.37,895.035L1161.75,899.501L1166.12,903.921L1168.29,906.1L1170.46,908.271L1172.63,910.428L1174.79,912.57L1176.96,914.698L1179.13,916.809L1181.29,918.906L1183.46,920.986L1185.62,923.051L1187.79,925.099L1189.96,927.13L1192.13,929.145L1194.31,931.142L1196.48,933.122L1198.67,935.084L1200.85,937.029L1203.04,938.954L1205.24,940.862L1207.44,942.751L1209.65,944.621L1211.86,946.471L1214.08,948.302L1216.31,950.113L1218.55,951.904L1220.8,953.676L1223.05,955.426L1225.31,957.156L1227.59,958.865L1229.87,960.553L1232.16,962.22L1234.47,963.865L1236.79,965.488L1239.14,967.105L1240.28,967.883L1241.45,968.67L1242.63,969.451L1243.81,970.227L1244.99,970.997L1246.17,971.762L1247.36,972.521L1248.55,973.274L1249.75,974.021L1250.95,974.763L1252.15,975.499L1253.36,976.229L1254.57,976.954L1255.78,977.673L1257,978.386L1258.22,979.093L1259.44,979.794L1260.67,980.49L1261.91,981.179L1263.14,981.863L1264.39,982.541L1265.63,983.213L1266.88,983.879L1268.14,984.539L1269.4,985.193L1270.66,985.841L1271.93,986.484L1273.2,987.12L1274.48,987.75L1275.76,988.375L1277.05,988.993L1278.34,989.605L1279.64,990.211L1280.94,990.812L1282.25,991.406L1283.56,991.994L1284.88,992.576L1286.2,993.153L1287.53,993.723L1288.87,994.287L1290.21,994.844L1291.64,995.432L1293.11,996.074L1294.5,996.765L1295.81,997.505L1297.03,998.289L1298.17,999.117L1299.22,999.985L1300.17,1000.89L1301.03,1001.83L1301.78,1002.8L1302.43,1003.8L1302.98,1004.82L1303.42,1005.87L1303.75,1006.93L1303.97,1008.01L1304.08,1009.1L1304.08,1010.2L1303.96,1011.3L1303.74,1012.4L1303.41,1013.5L1302.97,1014.59L1302.42,1015.67L1301.77,1016.74L1301.02,1017.79L1300.16,1018.82L1299.2,1019.82L1298.15,1020.8L1297.01,1021.75L1295.79,1022.66L1294.47,1023.54L1293.08,1024.38L1291.62,1025.17L1290.08,1025.92L1288.48,1026.63L1286.82,1027.28L1285.1,1027.88L1283.34,1028.43L1281.53,1028.92L1279.68,1029.36L1277.81,1029.74L1275.91,1030.05L1273.99,1030.31L1272.05,1030.51L1270.11,1030.64L1268.17,1030.71L1266.24,1030.72L1264.32,1030.66L1262.42,1030.54L1260.55,1030.36L1258.7,1030.12L1256.89,1029.82L1255.13,1029.45L1253.42,1029.03L1251.76,1028.55L1250.15,1028.02L1248.62,1027.43L1247.01,1026.77L1245.33,1026.07L1243.65,1025.36L1241.99,1024.65L1240.34,1023.93L1238.69,1023.2L1237.06,1022.47L1235.43,1021.73L1233.82,1020.99L1232.21,1020.24L1230.61,1019.48L1229.03,1018.72L1227.45,1017.95L1225.88,1017.17L1224.32,1016.39L1222.77,1015.61L1221.23,1014.82L1219.69,1014.02L1218.17,1013.22L1216.65,1012.41L1215.14,1011.6L1213.65,1010.78L1212.16,1009.96L1210.67,1009.13L1209.2,1008.3L1207.73,1007.46L1206.28,1006.61L1204.83,1005.76L1203.38,1004.91L1201.95,1004.05L1200.52,1003.19L1199.1,1002.32L1197.69,1001.44L1196.29,1000.57L1194.89,999.683L1193.5,998.795L1192.12,997.903L1190.74,997.006L1189.37,996.105L1188.01,995.199L1186.66,994.289L1185.29,993.36L1182.63,991.533L1179.98,989.674L1177.35,987.798L1174.75,985.906L1172.16,983.998L1169.6,982.073L1167.07,980.134L1164.55,978.179L1162.05,976.209L1159.57,974.225L1157.11,972.226L1154.67,970.213L1152.25,968.187L1149.84,966.147L1147.44,964.093L1145.07,962.027L1142.7,959.948L1140.35,957.856L1138.01,955.752L1135.68,953.637L1133.37,951.509L1131.06,949.37L1128.77,947.22L1126.48,945.059L1124.2,942.887L1121.93,940.705L1119.66,938.513L1117.4,936.31L1115.15,934.098L1112.9,931.876L1110.66,929.645L1108.42,927.405L1106.17,925.149L1101.71,920.634L1097.25,916.079L1092.78,911.493L1088.31,906.878L1083.79,902.204L1082.98,901.358L1082.13,900.454L1080.5,898.681L1077.15,895.008L1075.44,893.16L1074.61,892.274L1073.76,891.386L1072.92,890.516L1072.08,889.668L1071.5,889.096L1071.25,889.114L1071.06,889.124L1069.29,889.196L1067.53,889.215L1067.35,889.214L1065.41,889.174L1063.49,889.071L1063.32,889.059L1061.96,888.947L1060.63,888.802L1059.31,888.627L1059.14,888.603L1057.78,888.386L1056.44,888.134L1055.13,887.849L1054.98,887.813L1053.69,887.496L1052.44,887.146L1051.22,886.764L1051.07,886.715L1049.92,886.315L1048.8,885.887L1047.72,885.432L1047.58,885.37L1046.61,884.919L1045.67,884.445L1044.77,883.949L1044.63,883.873L1043.45,883.156L1042.35,882.401L1042.22,882.311L1041.3,881.605L1040.45,880.871L1039.61,880.108L1038.34,878.682L1037.38,877.354L1036.66,876.13L1036.14,875.007L1035.75,873.975L1035.57,873.372L1035.31,872.298L1035.17,871.212L1035.13,870.117L1035.2,869.017L1035.39,867.915L1035.68,866.816L1036.09,865.721L1036.6,864.636L1037.21,863.564L1037.93,862.507L1038.76,861.47L1039.68,860.456L1040.69,859.469L1041.81,858.51L1043,857.585L1044.29,856.695L1045.65,855.843L1047.09,855.033L1048.61,854.267L1050.19,853.548L1051.83,852.877L1053.53,852.257L1055.28,851.69L1057.07,851.178L1058.9,850.722L1060.77,850.325L1062.66,849.986L1064.58,849.709L1066.5,849.492L1066.71,849.475L1067.29,849.305L1068.83,848.892L1070.53,848.479L1072.42,848.076L1074.53,847.697L1076.84,847.358L1079.38,847.081L1082.13,846.892ZM1102.61,863.643L1102.55,863.446L1102.4,863.057L1102.61,863.643Z"/>
    </g>
    <path d="M38.301,91.146L38.318,91.146L38.336,91.146L38.354,91.147L38.371,91.147L38.389,91.148L38.407,91.149L38.425,91.15L38.442,91.151L38.46,91.152L38.478,91.153L38.495,91.155L38.513,91.156L38.53,91.158L38.548,91.16L38.566,91.162L38.583,91.164L38.601,91.166L38.618,91.168L38.636,91.17L38.653,91.173L38.671,91.176L38.688,91.178L38.706,91.181L38.723,91.184L38.741,91.187L38.758,91.191L38.776,91.194L38.793,91.198L38.81,91.201L38.828,91.205L38.845,91.209L38.862,91.213L38.879,91.217L38.896,91.221L38.914,91.225L38.931,91.23L38.948,91.235L38.965,91.239L38.982,91.244L38.999,91.249L39.016,91.254L39.033,91.259L39.05,91.265L39.067,91.27L39.083,91.276L39.1,91.281L39.117,91.287L39.134,91.293L39.15,91.299L39.167,91.305L39.183,91.311L39.2,91.318L39.217,91.324L39.233,91.331L39.249,91.337L39.266,91.344L39.282,91.351L39.298,91.358L39.314,91.365L39.331,91.373L39.347,91.38L39.363,91.388L39.379,91.395L39.395,91.403L39.41,91.411L39.426,91.419L39.442,91.427L39.458,91.435L39.473,91.443L39.489,91.452L39.505,91.46L39.52,91.469L39.535,91.477L39.551,91.486L39.566,91.495L39.581,91.504L39.596,91.513L39.612,91.523L39.627,91.532L39.642,91.541L39.656,91.551L39.671,91.561L39.686,91.571L39.701,91.58L39.715,91.59L39.73,91.6L39.744,91.611L39.759,91.621L39.773,91.631L39.787,91.642L39.802,91.652L39.816,91.663L39.83,91.674L39.844,91.685L39.858,91.696L39.871,91.707L39.885,91.718L39.899,91.729L39.912,91.741L39.926,91.752L39.939,91.764L39.953,91.775L39.966,91.787L39.979,91.799L39.992,91.811L40.005,91.823L40.018,91.835L40.031,91.847L40.044,91.859L40.056,91.872L40.069,91.884L40.081,91.897L40.094,91.909L40.106,91.922L40.118,91.935L40.13,91.948L40.142,91.961L40.154,91.974L40.166,91.987L40.178,92L40.19,92.014L40.201,92.027L40.213,92.041L40.224,92.054L40.235,92.068L40.247,92.082L40.258,92.095L40.269,92.109L40.28,92.123L40.29,92.137L40.301,92.151L40.312,92.165L40.322,92.18L40.333,92.194L40.343,92.208L40.353,92.223L40.363,92.237L40.373,92.252L40.383,92.267L40.393,92.281L40.403,92.296L40.412,92.311L40.422,92.326L40.431,92.341L40.44,92.356L40.449,92.371L40.459,92.387L40.467,92.402L40.476,92.417L40.485,92.433L40.494,92.448L40.502,92.464L40.511,92.479L40.519,92.495L40.527,92.511L40.535,92.526L40.543,92.542L40.551,92.558L40.559,92.574L40.566,92.59L40.574,92.606L40.581,92.622L40.589,92.638L40.596,92.654L40.603,92.671L40.61,92.687L40.617,92.703L40.623,92.719L40.63,92.736L40.637,92.752L40.643,92.769L40.649,92.785L40.655,92.802L40.661,92.819L40.667,92.835L40.673,92.852L40.679,92.869L40.684,92.886L40.69,92.903L40.695,92.919L40.7,92.936L40.705,92.953L40.71,92.97L40.715,92.987L40.72,93.004L40.725,93.022L40.729,93.039L40.733,93.056L40.738,93.073L40.742,93.09L40.746,93.107L40.75,93.125L40.753,93.142L40.757,93.159L40.761,93.177L40.764,93.194L40.767,93.211L40.771,93.229L40.774,93.246L40.776,93.264L40.779,93.281L40.782,93.299L40.784,93.316L40.787,93.334L40.789,93.351L40.791,93.369L40.793,93.387L40.795,93.404L40.797,93.422L40.799,93.439L40.8,93.457L40.802,93.475L40.803,93.492L40.804,93.51L40.805,93.528L40.806,93.545L40.807,93.563L40.808,93.581L40.808,93.598L40.809,93.616L40.809,93.634L40.809,93.652L40.809,93.669L40.809,93.687L40.809,93.705L40.809,93.722L40.809,93.74L40.808,93.758L40.807,93.775L40.807,93.793L40.806,93.811L40.805,93.829L40.803,93.846L40.802,93.864L40.801,93.882L40.799,93.899L40.798,93.913L40.798,93.943L40.799,93.96L40.799,93.978L40.799,93.996L40.799,94.014L40.798,94.031L40.798,94.049L40.797,94.067L40.797,94.084L40.796,94.102L40.795,94.12L40.794,94.137L40.793,94.155L40.792,94.173L40.79,94.19L40.789,94.208L40.787,94.226L40.785,94.243L40.783,94.261L40.781,94.278L40.779,94.296L40.777,94.314L40.775,94.331L40.772,94.349L40.769,94.366L40.767,94.384L40.764,94.401L40.761,94.419L40.758,94.436L40.754,94.453L40.751,94.471L40.748,94.488L40.744,94.506L40.74,94.523L40.736,94.54L40.732,94.557L40.728,94.575L40.724,94.592L40.72,94.609L40.715,94.626L40.711,94.643L40.706,94.66L40.701,94.677L40.696,94.694L40.691,94.711L40.686,94.728L40.681,94.745L40.675,94.762L40.67,94.779L40.664,94.796L40.658,94.812L40.653,94.829L40.647,94.846L40.64,94.862L40.634,94.879L40.628,94.895L40.621,94.912L40.615,94.928L40.608,94.945L40.601,94.961L40.594,94.977L40.587,94.994L40.58,95.01L40.573,95.026L40.566,95.042L40.558,95.058L40.551,95.074L40.543,95.09L40.535,95.106L40.527,95.122L40.519,95.138L40.511,95.153L40.503,95.169L40.494,95.185L40.486,95.2L40.477,95.216L40.468,95.231L40.46,95.246L40.451,95.262L40.442,95.277L40.433,95.292L40.423,95.307L40.414,95.322L40.405,95.337L40.395,95.352L40.385,95.367L40.376,95.382L40.366,95.396L40.356,95.411L40.346,95.426L40.336,95.44L40.325,95.455L40.315,95.469L40.304,95.483L40.294,95.497L40.283,95.511L40.272,95.526L40.262,95.54L40.251,95.553L40.239,95.567L40.228,95.581L40.217,95.595L40.206,95.608L40.194,95.622L40.183,95.635L40.171,95.649L40.159,95.662L40.148,95.675L40.136,95.688L40.124,95.701L40.112,95.714L40.099,95.727L40.087,95.74L40.075,95.752L40.062,95.765L40.05,95.777L40.037,95.79L40.024,95.802L40.012,95.814L39.999,95.826L39.986,95.839L39.973,95.85L39.959,95.862L39.946,95.874L39.933,95.886L39.92,95.897L39.906,95.909L39.893,95.92L39.879,95.932L39.865,95.943L39.851,95.954L39.838,95.965L39.824,95.976L39.81,95.987L39.795,95.997L39.781,96.008L39.767,96.019L39.753,96.029L39.738,96.039L39.724,96.049L39.709,96.06L39.695,96.07L39.68,96.08L39.665,96.089L39.651,96.099L39.636,96.109L39.621,96.118L39.606,96.128L39.591,96.137L39.576,96.146L39.56,96.155L39.545,96.164L39.53,96.173L39.514,96.182L39.499,96.19L39.483,96.199L39.468,96.207L39.452,96.216L39.436,96.224L39.421,96.232L39.405,96.24L39.389,96.248L39.373,96.256L39.357,96.263L39.341,96.271L39.325,96.278L39.309,96.285L39.293,96.293L39.277,96.3L39.26,96.307L39.244,96.314L39.228,96.32L39.211,96.327L39.195,96.333L39.178,96.34L39.162,96.346L39.145,96.352L39.128,96.358L39.112,96.364L39.095,96.37L39.078,96.376L39.061,96.381L39.045,96.387L39.028,96.392L39.011,96.397L38.994,96.403L38.977,96.408L38.96,96.412L38.943,96.417L38.926,96.422L38.909,96.426L38.891,96.431L38.874,96.435L38.857,96.439L38.84,96.443L38.823,96.447L38.805,96.451L38.788,96.455L38.771,96.458L38.753,96.461L38.736,96.465L38.718,96.468L38.701,96.471L38.683,96.474L38.666,96.477L38.648,96.479L38.631,96.482L38.613,96.484L38.596,96.487L38.578,96.489L38.561,96.491L38.543,96.493L38.525,96.495L38.508,96.497L38.49,96.498L38.473,96.5L38.455,96.501L38.437,96.502L38.42,96.503L38.402,96.504L38.384,96.505L38.367,96.506L38.349,96.506L38.331,96.507L38.313,96.507L38.296,96.507L38.278,96.507L38.26,96.507L38.243,96.507L38.225,96.507L38.207,96.507L38.19,96.506L38.172,96.505L38.154,96.505L38.136,96.504L38.119,96.503L38.101,96.502L38.083,96.5L38.066,96.499L38.048,96.497L38.031,96.496L38.013,96.494L37.995,96.492L37.978,96.49L37.96,96.488L37.943,96.486L37.925,96.483L37.907,96.481L37.89,96.478L37.872,96.475L37.855,96.472L37.838,96.469L37.82,96.466L37.803,96.463L37.785,96.46L37.768,96.456L37.751,96.453L37.733,96.449L37.716,96.445L37.699,96.441L37.682,96.437L37.664,96.433L37.647,96.428L37.63,96.424L37.613,96.419L37.596,96.415L37.579,96.41L37.562,96.405L37.545,96.4L37.528,96.395L37.511,96.389L37.494,96.384L37.477,96.379L37.461,96.373L37.444,96.367L37.427,96.361L37.41,96.355L37.394,96.349L37.377,96.343L37.361,96.337L37.344,96.33L37.328,96.324L37.311,96.317L37.295,96.31L37.279,96.303L37.263,96.296L37.246,96.289L37.23,96.282L37.214,96.274L37.198,96.267L37.182,96.259L37.166,96.251L37.15,96.244L37.134,96.236L37.119,96.228L37.103,96.22L37.087,96.211L37.072,96.203L37.056,96.194L37.041,96.186L37.025,96.177L37.01,96.168L36.995,96.159L36.979,96.15L36.964,96.141L36.949,96.132L36.934,96.123L36.919,96.113L36.904,96.104L36.889,96.094L36.874,96.084L36.86,96.074L36.845,96.064L36.831,96.054L36.816,96.044L36.802,96.034L36.787,96.024L36.773,96.013L36.759,96.002L36.745,95.992L36.731,95.981L36.717,95.97L36.703,95.959L36.689,95.948L36.675,95.937L36.662,95.926L36.648,95.914L36.634,95.903L36.621,95.891L36.608,95.88L36.594,95.868L36.581,95.856L36.568,95.844L36.555,95.832L36.542,95.82L36.529,95.808L36.517,95.796L36.504,95.783L36.491,95.771L36.479,95.758L36.466,95.746L36.454,95.733L36.442,95.72L36.43,95.707L36.418,95.694L36.406,95.681L36.394,95.668L36.382,95.655L36.37,95.642L36.359,95.628L36.347,95.615L36.336,95.601L36.325,95.588L36.313,95.574L36.302,95.56L36.291,95.546L36.28,95.532L36.27,95.518L36.259,95.504L36.248,95.49L36.238,95.476L36.227,95.461L36.217,95.447L36.207,95.433L36.197,95.418L36.187,95.403L36.177,95.389L36.167,95.374L36.157,95.359L36.148,95.344L36.138,95.329L36.129,95.314L36.119,95.299L36.11,95.284L36.101,95.269L36.092,95.254L36.083,95.238L36.075,95.223L36.066,95.208L36.057,95.192L36.049,95.176L36.041,95.161L36.032,95.145L36.024,95.129L36.016,95.114L36.008,95.098L36.001,95.082L35.993,95.066L35.985,95.05L35.978,95.034L35.971,95.018L35.964,95.001L35.956,94.985L35.949,94.969L35.943,94.953L35.936,94.936L35.929,94.92L35.923,94.903L35.916,94.887L35.91,94.87L35.904,94.854L35.898,94.837L35.892,94.82L35.886,94.804L35.88,94.787L35.875,94.77L35.869,94.753L35.864,94.736L35.859,94.719L35.854,94.702L35.849,94.686L35.844,94.668L35.839,94.651L35.834,94.634L35.83,94.617L35.825,94.6L35.821,94.583L35.817,94.566L35.813,94.548L35.809,94.531L35.805,94.514L35.802,94.497L35.798,94.479L35.795,94.462L35.791,94.444L35.788,94.427L35.785,94.41L35.782,94.392L35.779,94.375L35.777,94.357L35.774,94.34L35.772,94.322L35.769,94.305L35.767,94.287L35.765,94.269L35.763,94.252L35.761,94.234L35.76,94.217L35.758,94.199L35.757,94.181L35.755,94.164L35.754,94.146L35.753,94.128L35.752,94.111L35.751,94.093L35.75,94.075L35.75,94.057L35.75,94.054L35.749,94.036L35.746,93.967L35.743,93.861L35.743,93.731L35.746,93.621L35.755,93.496L35.774,93.331L35.794,93.228L35.797,93.211L35.8,93.194L35.804,93.178L35.807,93.161L35.811,93.144L35.815,93.128L35.818,93.111L35.822,93.095L35.827,93.078L35.831,93.061L35.835,93.045L35.84,93.029L35.844,93.012L35.849,92.996L35.854,92.979L35.858,92.963L35.863,92.949L35.868,92.932L35.873,92.916L35.878,92.899L35.884,92.882L35.89,92.865L35.895,92.848L35.901,92.832L35.907,92.815L35.914,92.798L35.92,92.782L35.926,92.765L35.933,92.749L35.939,92.732L35.946,92.716L35.953,92.7L35.96,92.683L35.967,92.667L35.974,92.651L35.981,92.635L35.989,92.619L35.996,92.603L36.004,92.587L36.011,92.571L36.019,92.555L36.027,92.539L36.035,92.523L36.04,92.513L36.049,92.498L36.057,92.482L36.065,92.466L36.074,92.451L36.082,92.435L36.091,92.42L36.1,92.405L36.109,92.389L36.118,92.374L36.127,92.359L36.136,92.344L36.146,92.329L36.155,92.314L36.165,92.299L36.174,92.284L36.184,92.269L36.194,92.255L36.204,92.24L36.214,92.225L36.224,92.211L36.235,92.197L36.245,92.182L36.255,92.168L36.266,92.154L36.277,92.14L36.288,92.126L36.298,92.112L36.309,92.098L36.32,92.084L36.332,92.07L36.343,92.057L36.354,92.043L36.366,92.029L36.377,92.016L36.389,92.003L36.401,91.989L36.413,91.976L36.424,91.963L36.436,91.95L36.449,91.937L36.461,91.924L36.473,91.912L36.485,91.899L36.498,91.886L36.51,91.874L36.523,91.862L36.536,91.849L36.549,91.837L36.562,91.825L36.575,91.813L36.588,91.801L36.601,91.789L36.614,91.777L36.627,91.766L36.641,91.754L36.654,91.743L36.668,91.731L36.681,91.72L36.695,91.709L36.709,91.698L36.723,91.687L36.737,91.676L36.751,91.665L36.765,91.654L36.779,91.644L36.793,91.633L36.808,91.623L36.822,91.612L36.837,91.602L36.851,91.592L36.866,91.582L36.88,91.572L36.895,91.562L36.91,91.553L36.925,91.543L36.94,91.534L36.955,91.524L36.97,91.515L36.985,91.506L37,91.497L37.016,91.488L37.031,91.479L37.046,91.47L37.062,91.462L37.077,91.453L37.093,91.445L37.108,91.436L37.124,91.428L37.14,91.42L37.156,91.412L37.172,91.404L37.188,91.397L37.204,91.389L37.22,91.381L37.236,91.374L37.252,91.367L37.268,91.36L37.284,91.352L37.3,91.345L37.317,91.339L37.333,91.332L37.35,91.325L37.366,91.319L37.383,91.312L37.399,91.306L37.416,91.3L37.432,91.294L37.449,91.288L37.466,91.282L37.483,91.277L37.499,91.271L37.516,91.266L37.533,91.26L37.55,91.255L37.567,91.25L37.584,91.245L37.601,91.24L37.618,91.235L37.635,91.231L37.652,91.226L37.669,91.222L37.687,91.218L37.704,91.213L37.721,91.209L37.738,91.206L37.756,91.202L37.773,91.198L37.79,91.195L37.808,91.191L37.825,91.188L37.843,91.185L37.86,91.182L37.877,91.179L37.895,91.176L37.912,91.173L37.93,91.171L37.948,91.168L37.965,91.166L37.983,91.164L38,91.162L38.018,91.16L38.035,91.158L38.053,91.156L38.071,91.155L38.088,91.153L38.106,91.152L38.124,91.151L38.141,91.15L38.159,91.149L38.177,91.148L38.194,91.147L38.212,91.147L38.23,91.146L38.248,91.146L38.265,91.146L38.283,91.146L38.301,91.146ZM40.668,94.503L40.662,94.52L40.656,94.537L40.65,94.553L40.644,94.57L40.638,94.586L40.631,94.603L40.625,94.619L40.618,94.636L40.611,94.652L40.604,94.668L40.597,94.685L40.59,94.701L40.583,94.717L40.575,94.733L40.568,94.749L40.56,94.765L40.552,94.781L40.545,94.797L40.537,94.813L40.529,94.828L40.629,94.633L40.67,94.499L40.668,94.503ZM40.73,94.3L40.729,94.304L40.731,94.295L40.733,94.289L40.73,94.3Z"/>
    <path d="M89.915,91.243L89.934,91.243L89.962,91.244L89.981,91.244L89.999,91.244L90.018,91.245L90.037,91.246L90.056,91.247L90.075,91.248L90.094,91.249L90.113,91.25L90.132,91.252L90.151,91.254L90.169,91.255L90.188,91.257L90.207,91.259L90.226,91.261L90.245,91.263L90.264,91.266L90.282,91.268L90.301,91.271L90.32,91.274L90.338,91.277L90.357,91.28L90.376,91.283L90.394,91.286L90.413,91.289L90.432,91.293L90.459,91.299L90.478,91.302L90.497,91.306L90.515,91.31L90.534,91.315L90.552,91.319L90.571,91.323L90.589,91.328L90.607,91.333L90.626,91.337L90.644,91.342L90.662,91.348L90.681,91.353L90.699,91.358L90.717,91.364L90.735,91.369L90.753,91.375L90.771,91.381L90.789,91.387L90.807,91.393L90.825,91.399L90.843,91.405L90.861,91.412L90.888,91.422L90.906,91.429L90.923,91.436L90.941,91.443L90.959,91.45L90.977,91.457L90.994,91.464L91.012,91.472L91.029,91.48L91.047,91.487L91.064,91.495L91.082,91.503L91.099,91.512L91.116,91.52L91.134,91.528L91.151,91.537L91.168,91.545L91.185,91.554L91.202,91.563L91.227,91.577L91.244,91.585L91.26,91.594L91.276,91.603L91.292,91.612L91.308,91.621L91.323,91.631L91.339,91.64L91.355,91.649L91.37,91.659L91.386,91.669L91.401,91.678L91.417,91.688L91.432,91.698L91.448,91.708L91.463,91.719L91.478,91.729L91.579,91.798L91.642,91.849L91.67,91.867L91.685,91.878L91.701,91.889L91.717,91.9L91.733,91.911L91.748,91.922L91.764,91.933L91.779,91.945L91.794,91.956L91.81,91.968L91.825,91.98L91.84,91.991L91.855,92.003L91.87,92.015L91.885,92.027L91.899,92.04L91.914,92.052L91.928,92.064L91.943,92.077L91.957,92.09L91.972,92.102L91.986,92.115L92,92.128L92.014,92.141L92.028,92.154L92.042,92.168L92.056,92.181L92.069,92.194L92.083,92.208L92.096,92.221L92.11,92.235L92.123,92.249L92.136,92.263L92.149,92.277L92.162,92.291L92.175,92.305L92.188,92.319L92.2,92.334L92.213,92.348L92.225,92.363L92.238,92.377L92.25,92.392L92.262,92.407L92.274,92.422L92.286,92.437L92.298,92.452L92.31,92.467L92.322,92.482L92.333,92.497L92.345,92.513L92.356,92.528L92.367,92.544L92.378,92.559L92.389,92.575L92.4,92.591L92.411,92.607L92.421,92.622L92.432,92.638L92.442,92.655L92.453,92.671L92.463,92.687L92.473,92.703L92.483,92.72L92.493,92.736L92.503,92.752L92.512,92.769L92.522,92.786L92.531,92.802L92.54,92.819L92.55,92.836L92.559,92.853L92.568,92.87L92.576,92.887L92.585,92.904L92.594,92.921L92.602,92.938L92.61,92.955L92.619,92.973L92.627,92.99L92.635,93.007L92.642,93.025L92.65,93.042L92.658,93.06L92.665,93.078L92.672,93.095L92.68,93.113L92.687,93.131L92.694,93.149L92.701,93.167L92.707,93.185L92.714,93.203L92.72,93.221L92.727,93.239L92.733,93.257L92.739,93.275L92.745,93.293L92.751,93.311L92.756,93.33L92.762,93.348L92.767,93.366L92.773,93.385L92.778,93.403L92.783,93.422L92.788,93.44L92.793,93.459L92.797,93.477L92.802,93.496L92.806,93.515L92.811,93.533L92.815,93.552L92.819,93.571L92.823,93.589L92.826,93.608L92.83,93.627L92.833,93.646L92.837,93.665L92.84,93.684L92.843,93.702L92.846,93.721L92.849,93.74L92.851,93.759L92.854,93.778L92.856,93.797L92.859,93.816L92.861,93.835L92.863,93.854L92.865,93.873L92.866,93.893L92.868,93.912L92.869,93.931L92.871,93.95L92.872,93.969L92.873,93.988L92.874,94.007L92.875,94.026L92.875,94.045L92.876,94.065L92.876,94.084L92.877,94.103L92.877,94.122L92.877,94.141L92.877,94.16L92.876,94.179L92.876,94.199L92.875,94.218L92.875,94.237L92.874,94.256L92.873,94.275L92.872,94.294L92.871,94.313L92.869,94.333L92.868,94.352L92.866,94.371L92.864,94.39L92.863,94.409L92.861,94.428L92.858,94.447L92.856,94.466L92.854,94.485L92.851,94.504L92.848,94.523L92.846,94.542L92.843,94.561L92.84,94.58L92.836,94.599L92.833,94.617L92.83,94.636L92.826,94.655L92.822,94.674L92.818,94.693L92.814,94.711L92.81,94.73L92.806,94.749L92.801,94.767L92.797,94.786L92.792,94.804L92.787,94.823L92.782,94.841L92.777,94.86L92.772,94.878L92.767,94.897L92.761,94.915L92.756,94.933L92.75,94.952L92.744,94.97L92.738,94.988L92.732,95.006L92.726,95.024L92.72,95.043L92.713,95.061L92.707,95.079L92.7,95.096L92.693,95.114L92.686,95.132L92.679,95.15L92.672,95.168L92.664,95.185L92.657,95.203L92.649,95.221L92.642,95.238L92.634,95.256L92.626,95.273L92.618,95.29L92.609,95.308L92.601,95.325L92.593,95.342L92.584,95.359L92.575,95.376L92.567,95.393L92.558,95.41L92.549,95.427L92.539,95.444L92.53,95.461L92.521,95.477L92.511,95.494L92.502,95.511L92.492,95.527L92.482,95.543L92.472,95.56L92.462,95.576L92.452,95.592L92.441,95.608L92.431,95.624L92.42,95.64L92.41,95.656L92.399,95.672L92.388,95.688L92.377,95.704L92.366,95.719L92.355,95.735L92.343,95.75L92.332,95.765L92.32,95.781L92.309,95.796L92.297,95.811L92.285,95.826L92.273,95.841L92.261,95.856L92.249,95.871L92.237,95.885L92.224,95.9L92.212,95.915L92.199,95.929L92.186,95.943L92.174,95.958L92.161,95.972L92.148,95.986L92.135,96L92.122,96.014L92.108,96.027L92.095,96.041L92.081,96.055L92.068,96.068L92.054,96.082L92.04,96.095L92.027,96.108L92.013,96.121L91.999,96.134L91.984,96.147L91.97,96.16L91.956,96.173L91.941,96.186L91.927,96.198L91.912,96.211L91.898,96.223L91.883,96.235L91.868,96.247L91.853,96.259L91.838,96.271L91.823,96.283L91.808,96.295L91.793,96.306L91.777,96.318L91.762,96.329L91.747,96.34L91.731,96.351L91.715,96.362L91.7,96.373L91.684,96.384L91.668,96.395L91.652,96.406L91.636,96.416L91.62,96.426L91.604,96.437L91.587,96.447L91.571,96.457L91.555,96.467L91.538,96.477L91.522,96.486L91.505,96.496L91.489,96.505L91.472,96.515L91.455,96.524L91.438,96.533L91.421,96.542L91.404,96.551L91.387,96.56L91.37,96.568L91.353,96.577L91.336,96.585L91.318,96.593L91.301,96.601L91.284,96.609L91.266,96.617L91.249,96.625L91.231,96.633L91.214,96.64L91.196,96.648L91.178,96.655L91.16,96.662L91.143,96.669L91.125,96.676L91.107,96.683L91.089,96.689L91.071,96.696L91.053,96.702L91.035,96.709L91.017,96.715L90.998,96.721L90.98,96.727L90.962,96.732L90.944,96.738L90.925,96.744L90.907,96.749L90.888,96.754L90.87,96.759L90.852,96.764L90.833,96.769L90.814,96.774L90.796,96.778L90.777,96.783L90.759,96.787L90.74,96.791L90.721,96.795L90.702,96.799L90.684,96.803L90.665,96.807L90.646,96.81L90.627,96.814L90.608,96.817L90.589,96.82L90.571,96.823L90.552,96.826L90.533,96.829L90.514,96.832L90.495,96.834L90.476,96.836L90.457,96.839L90.438,96.841L90.419,96.843L90.399,96.844L90.38,96.846L90.361,96.848L90.342,96.849L90.323,96.85L90.304,96.851L90.285,96.852L90.266,96.853L90.247,96.854L90.227,96.855L90.208,96.855L90.189,96.855L90.17,96.856L90.151,96.856L90.132,96.856L90.113,96.855L90.093,96.855L90.074,96.855L90.055,96.854L90.036,96.853L90.017,96.852L89.998,96.851L89.983,96.85L89.964,96.849L89.946,96.848L89.928,96.847L89.91,96.845L89.892,96.844L89.874,96.842L89.855,96.84L89.837,96.838L89.819,96.836L89.801,96.834L89.783,96.832L89.765,96.829L89.747,96.827L89.729,96.824L89.711,96.821L89.693,96.818L89.675,96.815L89.66,96.813L89.642,96.81L89.624,96.806L89.606,96.803L89.587,96.799L89.569,96.796L89.551,96.792L89.533,96.788L89.515,96.784L89.497,96.779L89.479,96.775L89.461,96.771L89.443,96.766L89.425,96.761L89.407,96.757L89.389,96.752L89.371,96.747L89.357,96.743L89.339,96.737L89.321,96.732L89.303,96.727L89.286,96.721L89.268,96.715L89.255,96.711L89.237,96.707L89.218,96.703L89.199,96.699L89.181,96.695L89.162,96.69L89.144,96.685L89.125,96.681L89.107,96.676L89.088,96.671L89.07,96.665L89.051,96.66L89.033,96.655L89.015,96.649L88.996,96.643L88.978,96.638L88.96,96.632L88.942,96.626L88.924,96.619L88.905,96.613L88.887,96.607L88.869,96.6L88.852,96.593L88.834,96.587L88.816,96.58L88.798,96.572L88.78,96.565L88.763,96.558L88.745,96.55L88.727,96.543L88.71,96.535L88.692,96.527L88.675,96.519L88.658,96.511L88.64,96.503L88.623,96.495L88.606,96.486L88.589,96.478L88.572,96.469L88.555,96.46L88.538,96.451L88.521,96.442L88.504,96.433L88.487,96.424L88.47,96.415L88.454,96.405L88.437,96.395L88.421,96.386L88.404,96.376L88.388,96.366L88.372,96.356L88.356,96.346L88.339,96.335L88.323,96.325L88.307,96.314L88.291,96.304L88.276,96.293L88.26,96.282L88.244,96.271L88.229,96.26L88.213,96.249L88.198,96.237L88.182,96.226L88.167,96.214L88.152,96.203L88.137,96.191L88.121,96.179L88.107,96.167L88.092,96.155L88.077,96.143L88.062,96.131L88.048,96.118L88.033,96.106L88.019,96.093L88.004,96.081L87.99,96.068L87.976,96.055L87.962,96.042L87.948,96.029L87.934,96.016L87.92,96.003L87.906,95.989L87.893,95.976L87.879,95.962L87.866,95.949L87.852,95.935L87.839,95.921L87.826,95.907L87.813,95.893L87.8,95.879L87.787,95.865L87.774,95.85L87.762,95.836L87.749,95.821L87.737,95.807L87.724,95.792L87.712,95.778L87.7,95.763L87.688,95.748L87.676,95.733L87.664,95.718L87.653,95.703L87.641,95.687L87.629,95.672L87.618,95.657L87.607,95.641L87.596,95.626L87.585,95.61L87.574,95.594L87.563,95.578L87.552,95.563L87.541,95.547L87.531,95.531L87.521,95.515L87.51,95.498L87.5,95.482L87.49,95.466L87.48,95.449L87.47,95.433L87.461,95.417L87.451,95.4L87.442,95.383L87.432,95.367L87.423,95.35L87.414,95.333L87.405,95.316L87.396,95.299L87.387,95.282L87.379,95.265L87.37,95.248L87.362,95.231L87.353,95.213L87.345,95.196L87.337,95.179L87.329,95.161L87.322,95.144L87.314,95.126L87.306,95.109L87.299,95.091L87.292,95.073L87.284,95.055L87.277,95.038L87.27,95.02L87.264,95.002L87.257,94.984L87.25,94.966L87.244,94.948L87.238,94.93L87.232,94.912L87.226,94.893L87.22,94.875L87.214,94.857L87.208,94.839L87.203,94.82L87.197,94.802L87.192,94.784L87.187,94.765L87.182,94.747L87.177,94.728L87.172,94.709L87.168,94.691L87.163,94.672L87.159,94.654L87.155,94.635L87.151,94.616L87.147,94.597L87.143,94.579L87.139,94.56L87.136,94.541L87.132,94.522L87.129,94.503L87.126,94.485L87.123,94.466L87.12,94.447L87.117,94.428L87.114,94.409L87.112,94.39L87.11,94.371L87.107,94.352L87.105,94.333L87.103,94.314L87.101,94.295L87.1,94.276L87.098,94.256L87.097,94.237L87.095,94.218L87.094,94.199L87.093,94.18L87.092,94.161L87.092,94.142L87.091,94.123L87.091,94.103L87.09,94.084L87.09,94.065L87.09,94.046L87.09,94.027L87.09,94.008L87.09,93.989L87.091,93.969L87.092,93.95L87.092,93.931L87.093,93.912L87.094,93.893L87.095,93.874L87.097,93.855L87.098,93.836L87.099,93.816L87.101,93.797L87.103,93.778L87.105,93.759L87.107,93.74L87.109,93.721L87.111,93.702L87.114,93.683L87.117,93.664L87.119,93.645L87.122,93.626L87.125,93.607L87.128,93.588L87.132,93.57L87.135,93.551L87.139,93.532L87.142,93.513L87.146,93.494L87.15,93.476L87.154,93.457L87.158,93.438L87.162,93.42L87.167,93.401L87.172,93.382L87.176,93.364L87.181,93.345L87.186,93.327L87.191,93.308L87.196,93.29L87.202,93.271L87.207,93.253L87.213,93.235L87.219,93.217L87.225,93.198L87.231,93.18L87.237,93.162L87.243,93.144L87.249,93.126L87.256,93.108L87.263,93.09L87.269,93.072L87.276,93.054L87.283,93.036L87.29,93.019L87.298,93.001L87.305,92.983L87.313,92.966L87.32,92.948L87.328,92.93L87.336,92.913L87.344,92.896L87.352,92.878L87.36,92.861L87.369,92.844L87.377,92.827L87.386,92.81L87.394,92.792L87.403,92.775L87.412,92.759L87.421,92.742L87.431,92.725L87.44,92.708L87.449,92.692L87.459,92.675L87.469,92.658L87.478,92.642L87.488,92.626L87.498,92.609L87.509,92.593L87.519,92.577L87.529,92.561L87.54,92.545L87.55,92.529L87.561,92.513L87.572,92.497L87.629,92.414L87.749,92.26L87.826,92.175L87.838,92.161L87.851,92.147L87.863,92.134L87.876,92.12L87.889,92.107L87.902,92.093L87.915,92.08L87.928,92.067L87.941,92.054L87.955,92.041L87.968,92.028L87.982,92.015L87.995,92.002L88.006,91.992L88.02,91.979L88.034,91.967L88.047,91.954L88.061,91.942L88.075,91.93L88.089,91.918L88.104,91.906L88.118,91.894L88.132,91.882L88.147,91.87L88.161,91.858L88.176,91.847L88.19,91.835L88.205,91.824L88.22,91.813L88.235,91.802L88.245,91.794L88.26,91.783L88.275,91.772L88.29,91.761L88.304,91.751L88.319,91.74L88.334,91.73L88.35,91.72L88.365,91.71L88.38,91.699L88.395,91.69L88.411,91.68L88.426,91.67L88.442,91.66L88.457,91.651L88.473,91.641L88.489,91.632L88.504,91.623L88.52,91.614L88.536,91.605L88.552,91.596L88.562,91.59L88.579,91.581L88.595,91.572L88.612,91.563L88.628,91.554L88.645,91.546L88.662,91.537L88.679,91.529L88.696,91.521L88.712,91.513L88.729,91.505L88.746,91.497L88.763,91.489L88.781,91.481L88.798,91.474L88.815,91.466L88.832,91.459L88.85,91.452L88.867,91.445L88.884,91.438L88.902,91.431L88.919,91.425L88.937,91.418L88.954,91.411L88.964,91.408L88.982,91.402L89,91.395L89.018,91.389L89.036,91.383L89.054,91.377L89.071,91.372L89.089,91.366L89.108,91.36L89.126,91.355L89.144,91.35L89.162,91.345L89.18,91.34L89.198,91.335L89.216,91.33L89.235,91.325L89.253,91.321L89.271,91.317L89.29,91.312L89.308,91.308L89.327,91.304L89.345,91.3L89.363,91.297L89.382,91.293L89.4,91.29L89.419,91.286L89.438,91.283L89.447,91.281L89.466,91.278L89.484,91.275L89.503,91.273L89.521,91.27L89.54,91.267L89.559,91.265L89.577,91.262L89.596,91.26L89.615,91.258L89.633,91.256L89.652,91.255L89.671,91.253L89.689,91.251L89.708,91.25L89.727,91.249L89.746,91.247L89.764,91.246L89.783,91.246L89.802,91.245L89.821,91.244L89.84,91.244L89.858,91.243L89.877,91.243L89.896,91.243L89.915,91.243ZM92.047,95.607L92.036,95.623L92.025,95.638L92.016,95.651L92.026,95.637L92.058,95.592L92.047,95.607ZM90.723,91.466L90.745,91.471L90.731,91.467L90.708,91.463L90.723,91.466ZM90.325,91.411L90.344,91.412L90.363,91.414L90.382,91.415L90.401,91.417L90.42,91.419L90.44,91.421L90.459,91.423L90.478,91.425L90.497,91.428L90.519,91.43L90.446,91.418L90.306,91.41L90.325,91.411Z"/>
</svg>
